<svg
   xmlns:dc="http://purl.org/dc/elements/1.1/"
   xmlns:cc="http://creativecommons.org/ns#"
   xmlns:rdf="http://www.w3.org/1999/02/22-rdf-syntax-ns#"
   xmlns:svg="http://www.w3.org/2000/svg"
   xmlns="http://www.w3.org/2000/svg"
   xmlns:sodipodi="http://sodipodi.sourceforge.net/DTD/sodipodi-0.dtd"
   xmlns:inkscape="http://www.inkscape.org/namespaces/inkscape"
   width="96.288612mm"
   height="55.563961mm"
   viewBox="0 0 96.288612 55.563961"
   version="1.1"
   id="svg892"
   sodipodi:docname="logo-white.svg"
   inkscape:version="0.92.5 (2060ec1f9f, 2020-04-08)">
  <defs
     id="defs886" />
  <sodipodi:namedview
     id="base"
     pagecolor="#ffffff"
     bordercolor="#666666"
     borderopacity="1.0"
     inkscape:pageopacity="0.0"
     inkscape:pageshadow="2"
     inkscape:zoom="1.4"
     inkscape:cx="182.01689"
     inkscape:cy="158.60948"
     inkscape:document-units="mm"
     inkscape:current-layer="layer1"
     showgrid="false"
     inkscape:window-width="1366"
     inkscape:window-height="704"
     inkscape:window-x="0"
     inkscape:window-y="27"
     inkscape:window-maximized="1" />
  <metadata
     id="metadata889">
    <rdf:RDF>
      <cc:Work
         rdf:about="">
        <dc:format>image/svg+xml</dc:format>
        <dc:type
           rdf:resource="http://purl.org/dc/dcmitype/StillImage" />
      </cc:Work>
    </rdf:RDF>
  </metadata>
  <g
     inkscape:label="Layer 1"
     inkscape:groupmode="layer"
     id="layer1"
     transform="translate(-59.767897,-53.771592)">
    <g
       id="g861"
       transform="matrix(0.33724485,0,0,0.33724485,53.934964,24.96484)"
       style="fill:#1a1a1a">
      <path
         inkscape:connector-curvature="0"
         id="path837"
         d="m 231.866,249.67434 c -5.8646,-1.66268 -8.74877,-3.5978 -12.24547,-8.21601 -1.56257,-2.06376 -2.84104,-4.05826 -2.84104,-4.43221 0,-0.90065 1.11971,-2.46819 1.76306,-2.46819 0.2808,0 0.91561,-0.4312 1.41072,-0.95823 0.70543,-0.75088 0.87293,-1.3384 0.77417,-2.71556 -0.1176,-1.64056 -0.24636,-1.81603 -1.93642,-2.64018 -4.65265,-2.2688 -11.62232,-3.19131 -28.30881,-3.74696 -17.32747,-0.577 -22.12401,-1.36583 -28.4604,-4.68054 -3.431,-1.79485 -6.1449,-4.0992 -8.81646,-7.486 -1.17813,-1.49356 -2.33682,-2.7149 -2.57486,-2.71406 -0.23804,7.9e-4 -0.97591,0.33148 -1.63972,0.73478 -1.96054,1.19113 -5.03669,2.08708 -8.04614,2.34346 l -2.81615,0.23991 -0.0376,1.72138 c -0.079,3.61099 -3.83974,9.56021 -7.73836,12.24157 -3.70139,2.54574 -10.04899,3.52926 -14.41315,2.23325 -3.09399,-0.91883 -5.04418,-2.6033 -8.73267,-7.54283 -3.74993,-5.02179 -4.38119,-6.11192 -5.06954,-8.75457 -0.25936,-0.9957 -0.65231,-2.50755 -0.87323,-3.35964 -0.22092,-0.85209 -0.4674,-1.48353 -0.54774,-1.40317 -0.0804,0.0803 -0.36383,2.13528 -0.62998,4.56656 -0.618702,5.65198 -0.765012,5.82855 -4.829872,5.82855 -3.60768,0 -7.30705,-1.00599 -9.636997,-2.62065 -1.585973,-1.09907 -7.605641,-8.45828 -8.679531,-10.61095 -0.327453,-0.65638 -0.790009,-2.29846 -1.027919,-3.64903 -0.346932,-1.96963 -0.562924,-2.4191 -1.091349,-2.2711 -4.582997,1.28362 -10.677782,-0.18002 -14.229356,-3.41711 -0.82575,-0.75263 -3.113604,-3.50963 -5.084144,-6.12667 -4.464997,-5.92989 -5.082968,-7.60315 -5.077403,-13.74785 0.0034,-3.77125 0.143255,-4.73458 0.945972,-6.51714 l 0.941969,-2.09175 -4.923507,-4.74746 -4.923496,-4.74747 -3.790875,-0.47861 c -5.382378,-0.67956 -6.738301,-1.45546 -10.198323,-5.83587 -3.728518,-4.7203 -4.207771,-5.84557 -3.58866,-8.4263 0.569377,-2.37347 2.713278,-4.41626 5.434405,-5.17813 1.944456,-0.54442 2.137059,-0.81859 1.15033,-1.63752 -1.089536,-0.90421 -8.761925,-10.88934 -10.33036,-13.44428 -2.433608,-3.9643 -3.617968,-7.83748 -3.820993,-12.4958 -0.361278,-8.28915 2.512194,-13.925179 8.631566,-16.929979 2.110511,-1.03633 2.73732,-1.14815 6.364148,-1.13535 3.21112,0.0113 4.483838,0.19757 6.306068,0.92277 2.905811,1.15644 6.926946,4.2568 8.924294,6.880769 0.853565,1.12134 1.70981,2.03879 1.902788,2.03879 0.192965,0 0.741246,-0.76523 1.218389,-1.70051 1.302105,-2.552319 3.673528,-5.608259 5.814476,-7.492799 5.899699,-5.19311 13.466715,-5.937773 19.620882,-1.93086 1.329087,0.86536 3.136127,2.84319 5.694118,6.23231 3.87295,5.131309 5.051607,7.667749 5.66107,12.182419 l 0.251024,1.85942 2.048451,0.2426 c 1.126643,0.1334 2.972003,0.70989 4.100793,1.281 1.71173,0.86606 2.23781,0.96789 3.16978,0.61356 2.47212,-0.93989 8.138682,-0.17044 10.692242,1.45191 0.6391,0.40602 2.37803,2.32774 3.86431,4.27046 2.16262,2.82678 2.74281,3.89141 2.90503,5.33056 0.11153,0.98909 0.31493,1.78926 0.4521,1.77815 0.13717,-0.0113 0.77663,-1.13148 1.42102,-2.48969 1.9885,-4.19134 5.73972,-7.19691 10.46852,-8.38763 1.4845,-0.3738 1.82624,-0.61142 1.61722,-1.12455 -1.34791,-3.30922 -1.7916,-5.31861 -1.7916,-8.11389 0,-9.350199 5.85636,-15.577179 16.83942,-17.905096 3.22817,-0.684228 11.13986,-0.751004 14.92462,-0.12596 l 2.75177,0.45445 1.57291,-1.264026 c 2.02342,-1.626062 5.26074,-2.35386 7.60293,-1.709247 2.166,0.596117 3.43313,1.818007 7.22028,6.96251 2.02347,2.74867 2.29154,4.37296 0.95629,5.79427 l -0.83397,0.88772 3.69747,4.770489 c 2.03361,2.62379 4.25815,5.902 4.9434,7.28493 1.28863,2.6006 1.80956,2.96271 2.70685,1.88155 1.27915,-1.54127 3.72933,-2.35269 7.61943,-2.52332 8.42401,-0.36952 8.92746,-0.32955 10.97634,0.87116 1.0458,0.61289 2.76051,2.17988 3.81043,3.48221 1.04993,1.30232 2.01011,2.3804 2.13372,2.39571 0.12356,0.0161 0.64209,-1.37519 1.15216,-3.09002 1.88514,-6.33757 6.05024,-17.563049 6.79171,-18.304519 0.42088,-0.42087 1.49384,-0.86294 2.38437,-0.98238 1.78676,-0.23965 7.69282,0.82322 9.35734,1.68398 0.58271,0.30133 2.38192,2.27675 3.99824,4.389839 3.27693,4.28411 3.25811,4.18426 1.60659,8.52701 l -0.93356,2.45488 1.46445,1.5682 c 0.80547,0.8625 1.91236,2.1113 2.45976,2.77511 0.54742,0.66381 1.07682,1.11639 1.17648,1.00575 0.0997,-0.11065 1.21406,-3.55034 2.47646,-7.64383 1.2624,-4.09347 2.48222,-8.04506 2.71067,-8.7813 0.68647,-2.212249 2.37287,-2.983349 5.96474,-2.727359 3.50335,0.2497 6.77248,1.1402 7.89633,2.150939 1.4585,1.31169 5.71831,7.13596 5.97579,8.17046 0.25089,1.00804 0.3179,1.02509 3.95325,1.00578 5.33965,-0.0284 7.8208,1.16199 11.34187,5.4414 l 2.01155,2.44476 2.61498,0.0892 c 3.92225,0.13372 6.22547,1.54644 9.56451,5.86658 4.4489,5.75609 5.01408,6.85733 5.22289,10.1768 0.55623,8.84208 -5.36729,16.57557 -15.18971,19.831 -3.01057,0.9978 -9.37369,1.01214 -12.67266,0.0285 -3.09393,-0.92244 -6.35343,-2.77736 -8.66039,-4.92851 l -1.82118,-1.69817 -1.94496,2.20603 c -1.06972,1.2133 -1.87953,2.25464 -1.79959,2.31405 0.08,0.0594 0.779,0.53072 1.55346,1.04733 0.77442,0.51663 2.01555,1.49899 2.75806,2.183 2.01087,1.85247 8.64589,10.5938 9.84892,12.97546 2.45708,4.86438 3.56742,12.25789 2.69677,17.95724 -1.20066,7.85937 -4.7782,14.50149 -10.76592,19.98816 -4.75532,4.35739 -11.01851,7.09272 -17.24684,7.53226 -1.8608,0.1313 -3.38328,0.2995 -3.38328,0.37376 0,0.0742 1.15919,1.63671 2.57597,3.47216 4.59365,5.9511 6.02435,9.62838 5.985,15.38292 -0.0521,7.62726 -3.82507,13.55501 -10.5725,16.61088 -2.77247,1.25562 -9.07385,1.62446 -12.27035,0.71822 z m 4.59763,-8.86792 c 4.36438,-1.16151 8.03096,-4.61609 9.77724,-9.21196 3.2631,-8.58775 -1.47971,-19.06046 -10.81542,-23.88184 -4.65242,-2.40273 -8.83345,-3.34476 -16.03097,-3.61193 -6.80676,-0.25268 -10.83584,0.0753 -26.0691,2.12225 -5.79746,0.77902 -12.71328,1.5216 -15.36851,1.65018 -15.78579,0.76445 -23.22769,-6.32531 -20.54365,-19.57158 0.61698,-3.04488 4.9004,-16.45102 7.31292,-22.88772 0.52821,-1.40928 0.96037,-2.81679 0.96037,-3.12784 0,-0.7113 -1.51482,-1.30664 -4.68904,-1.84284 -3.80035,-0.64197 -4.31884,-0.3779 -5.50701,2.8046 -3.76259,10.0781 -7.47939,20.75007 -7.86921,22.5947 -0.85368,4.03961 -5.84243,9.53761 -9.35405,10.30889 -2.91434,0.64009 -5.93118,-1.30379 -6.57539,-4.23682 -0.36676,-1.66986 -0.14852,-1.79986 1.21763,-0.72523 1.64857,1.29674 5.52924,1.49988 7.66604,0.40123 4.2535,-2.18695 6.48334,-7.47995 5.39435,-12.80467 -1.22487,-5.98922 -8.54221,-8.80655 -14.70573,-5.66205 -5.57138,2.84241 -9.19716,9.39634 -9.17074,16.57693 0.0131,3.55436 0.60655,5.64977 2.29731,8.11153 4.83377,7.03796 15.03695,7.78264 21.26739,1.5522 l 1.78754,-1.78754 0.66476,2.0965 c 2.30052,7.25532 9.44889,12.70785 19.01925,14.50722 3.99158,0.75046 7.57759,0.99521 21.68954,1.48038 15.13873,0.52047 20.74929,1.33686 26.18885,3.81069 5.01537,2.28091 7.91958,5.89059 8.46853,10.52564 0.19812,1.67281 0.0486,2.45613 -0.85319,4.46525 -1.32882,2.96103 -1.13876,3.79338 1.11451,4.8808 4.08648,1.97215 8.78366,2.51215 12.72578,1.46303 z m -104.5709,-54.36841 c 0,-0.13501 0.57329,-1.32105 1.27398,-2.63568 1.8563,-3.48276 4.39502,-5.37901 5.02022,-3.74975 0.47152,1.22877 -1.15426,3.79056 -3.63367,5.72565 -1.07248,0.83702 -2.66053,1.23083 -2.66053,0.65978 z m -12.35507,33.84317 c 2.32079,-0.60447 4.93109,-2.00589 6.65906,-3.57504 1.42944,-1.29808 3.68447,-5.3788 3.68447,-6.66746 0,-1.28587 -0.57372,-1.63071 -2.71313,-1.63071 -3.48349,0 -6.37489,-3.286 -7.36611,-8.37139 -1.18648,-6.08722 0.43186,-20.92041 3.76125,-34.47429 1.79461,-7.30579 1.9985,-8.77384 1.48401,-10.68454 -0.85059,-3.15883 -3.24752,-4.01432 -6.54047,-2.33438 -3.78227,1.92957 -16.16838,16.37468 -21.145322,24.66042 -0.92197,1.53491 -1.67631,2.60578 -1.67631,2.37971 0,-0.22608 0.62733,-2.39219 1.39409,-4.8136 3.033612,-9.58024 6.172252,-15.65457 8.921222,-17.26558 2.11023,-1.23667 2.96081,-2.39682 2.96081,-4.03839 0,-2.27205 -2.04808,-3.29643 -5.06956,-2.53561 -1.42409,0.35858 -2.5032,1.04403 -4.140852,2.63022 -2.14457,2.07716 -2.28689,2.14523 -4.48576,2.14523 -1.24901,0 -4.18108,0.11695 -6.515686,0.25972 l -4.244754,0.25972 -0.236893,1.48145 c -0.130286,0.81481 -0.762129,2.52274 -1.404082,3.79541 l -1.167173,2.31395 1.060296,-0.27101 c 2.293294,-0.58618 6.407528,-1.35888 8.687012,-1.63153 l 2.39675,-0.28667 -0.70785,1.08031 c -6.81095,10.39483 -14.755095,30.4689 -14.742323,37.2524 0.0045,2.37679 1.548979,5.64425 3.298919,6.97898 1.81224,1.38229 4.37079,2.26235 7.415206,2.55066 2.926558,0.27714 3.116368,0.0739 3.496118,-3.74321 0.4969,-4.99463 3.90548,-12.58753 11.447122,-25.49945 3.23936,-5.54607 9.4171,-14.82848 11.1115,-16.69573 l 1.46028,-1.60924 -1.5662,3.21846 c -8.08989,16.62429 -12.3629,33.71613 -10.9528,43.81063 1.29924,9.30087 7.03066,13.50017 15.43716,11.31056 z m 129.62753,-16.84721 c 1.90785,-0.51129 7.21075,-2.98847 8.57742,-4.00685 1.9493,-1.45253 6.89836,-6.87835 8.05984,-8.83626 3.32643,-5.60751 4.66526,-10.89164 4.35382,-17.18358 -0.46167,-9.32654 -4.52492,-16.40915 -11.32724,-19.74446 -2.62907,-1.28906 -3.06419,-1.37662 -6.83923,-1.37635 -3.60285,2.8e-4 -4.25054,0.11582 -6.09123,1.08658 -3.27653,1.72799 -5.85327,5.41774 -5.93402,8.4972 -0.0498,1.89915 0.94595,2.8559 3.37686,3.24463 8.04903,1.28709 14.02105,11.43189 12.58749,21.38268 -0.74792,5.19157 -3.91076,10.31739 -7.21925,11.69976 -1.61861,0.67628 -5.11241,0.72569 -6.3019,0.089 -1.12381,-0.60146 -2.37026,-2.16813 -2.96789,-3.73038 -0.77314,-2.02105 -0.62283,-7.87656 0.31304,-12.19618 1.30132,-6.0064 0.6692,-8.62252 -2.48435,-10.28192 -2.47504,-1.30234 -7.05149,0.0663 -9.15237,2.73712 -1.01675,1.29258 -1.3641,1.28221 -0.86675,-0.026 0.21579,-0.56756 0.39234,-1.21043 0.39234,-1.42859 0,-0.69422 -2.58297,-1.50783 -5.67703,-1.78821 -3.43248,-0.31104 -3.63681,-0.18754 -4.36771,2.63954 -0.48602,1.87997 -1.40194,4.85174 -3.12105,10.12652 -0.60836,1.8666 -1.43054,3.49305 -2.08063,4.11588 l -1.07482,1.02974 0.16258,-4.04773 c 0.27128,-6.75424 -1.11775,-10.83816 -4.58652,-13.48493 -1.64808,-1.25753 -1.34878,-1.23015 -9.89637,-0.90479 -3.5621,0.13566 -4.03413,0.25064 -5.6292,1.3719 -0.95759,0.67312 -2.4248,2.20255 -3.26048,3.39872 -1.52228,2.17894 -3.5156,7.58352 -3.5156,9.53199 0,0.57096 -0.39565,1.67825 -0.87921,2.46067 -1.02427,1.65731 -1.06738,1.59805 -2.09775,-2.88349 -0.34937,-1.51956 -1.28174,-4.26809 -2.07192,-6.10785 -1.34367,-3.12838 -1.40493,-3.45107 -0.94604,-4.98277 0.6062,-2.02331 0.0582,-3.50605 -1.43408,-3.8806 -2.4208,-0.60759 -4.12423,0.82688 -4.52434,3.80999 -0.15679,1.16867 -0.85171,2.37786 -2.59804,4.52047 -2.32077,2.84739 -2.42889,2.9227 -4.07457,2.83816 -5.4383,-0.27937 -9.03407,6.5531 -6.85804,13.03121 1.90738,5.67834 6.34154,8.85388 12.27012,8.78723 2.49857,-0.0281 3.50659,-0.24355 5.34316,-1.1421 2.60116,-1.27263 5.12851,-3.61611 6.8653,-6.3658 0.6636,-1.05064 1.29708,-1.9099 1.4077,-1.90946 0.11066,4e-4 0.54047,0.82581 0.95518,1.83416 1.12145,2.72676 4.03634,5.50858 6.90501,6.58979 1.99203,0.75081 2.98883,0.87682 5.88008,0.74342 2.99406,-0.13808 3.72186,-0.31975 5.19886,-1.29718 1.70454,-1.12802 3.1517,-2.61571 4.48582,-4.61152 0.61439,-0.91908 2.6224,-1.88839 3.04225,-1.46855 0.0861,0.0861 0.32849,0.92196 0.53869,1.85744 0.80331,3.57532 3.17904,5.20096 7.60065,5.20096 h 2.40571 v -2.0285 c 0,-7.80201 5.67702,-22.06875 8.60244,-21.61845 0.95837,0.14743 0.97612,-0.051 -0.43559,4.86935 -0.85073,2.96516 -0.99175,4.16562 -0.85543,7.28244 0.14017,3.20554 0.3474,4.10617 1.46879,6.38398 2.34969,4.77292 5.93335,6.68804 12.54206,6.7025 2.10205,0.005 4.7271,-0.23423 5.83344,-0.53071 z m -53.96476,-10.05829 c -0.95923,-0.8251 -1.12934,-1.31426 -1.28001,-3.68043 -0.15227,-2.39054 0.41649,-6.5544 1.03706,-7.59314 0.11727,-0.19639 0.60082,0.98035 1.07441,2.61501 0.79749,2.75254 3.23343,7.19629 3.94485,7.19629 0.65528,0 0.2646,1.1918 -0.58597,1.78756 -1.28353,0.89903 -2.91413,0.77246 -4.19034,-0.32529 z m -25.63775,-1.89378 c -2.158,-1.6975 -0.9806,-4.79848 1.8219,-4.79848 1.5132,0 1.73767,-0.59614 0.79806,-2.11946 l -0.80196,-1.30015 1.13747,-1.27076 1.13749,-1.27075 0.44081,1.75063 c 0.98551,3.91383 0.29261,7.84868 -1.61774,9.18673 -1.21828,0.85333 -1.63771,0.82777 -2.91603,-0.17776 z m 33.65047,-4.47971 c -1.91424,-2.38658 -3.12253,-7.70537 -2.15931,-9.50518 0.63836,-1.19278 1.88306,-1.09369 2.74198,0.21828 0.5595,0.85462 0.7133,1.93467 0.7133,5.00884 0,3.93219 -0.43134,5.35606 -1.29597,4.27806 z m 44.52356,8.74369 c 1.71962,-0.88926 3.92572,-3.68591 4.73398,-6.00119 0.88963,-2.54837 0.99943,-10.10976 0.18041,-12.42422 -0.73082,-2.0653 -2.93145,-3.1733 -6.80494,-3.42623 -1.60421,-0.10484 -2.91672,-0.0682 -2.91672,0.0811 0,0.14937 0.4571,0.76157 1.0158,1.36039 2.48841,2.66721 4.15896,5.92567 4.19653,8.18547 0.01,0.58413 -0.32605,2.75658 -0.74613,4.82768 -0.96872,4.77587 -1.39687,7.98985 -1.06437,7.98985 0.14243,0 0.77484,-0.26682 1.40544,-0.59291 z M 69.942986,190.30927 c 3.730457,-1.03641 8.442922,-5.19944 8.442922,-7.45858 0,-0.61489 -0.493349,-1.33031 -1.387819,-2.01256 -2.078009,-1.58496 -3.168685,-4.14238 -2.964179,-6.95037 0.0918,-1.25998 0.475649,-2.90863 0.853087,-3.66366 0.790626,-1.58159 0.679585,-1.88642 -0.464188,-1.27429 -0.447457,0.23947 -2.182824,0.62585 -3.856368,0.85861 -3.697922,0.51435 -7.883579,0.0189 -12.034684,-1.42484 -3.272678,-1.13811 -3.293376,-1.12905 -4.580372,2.00641 -1.606375,3.9135 -1.505747,8.85684 0.262041,12.87382 0.647186,1.47061 2.876275,4.11491 4.519668,5.36154 2.263473,1.71699 7.992922,2.57766 11.209892,1.68392 z M 215.17433,173.08248 c 0.64371,-2.11927 1.09255,-2.89267 1.9846,-3.41961 1.60222,-0.94645 6.09337,-0.8979 9.3014,0.10066 2.48625,0.77379 2.52609,0.77379 4.04288,0 1.87465,-0.95638 5.56225,-1.03845 8.00085,-0.17807 0.94072,0.3319 1.78971,0.60348 1.88665,0.60348 0.097,0 -0.58292,-1.08233 -1.51084,-2.40517 l -1.68712,-2.40513 0.1867,-3.12658 c 0.20373,-3.41185 1.03909,-5.50437 3.16318,-7.9236 1.0297,-1.17275 1.1575,-1.53344 0.788,-2.22386 -0.48223,-0.90106 -0.85268,-1.01909 -1.43861,-0.45831 -0.67414,0.64518 -4.69315,1.6459 -6.5904,1.64097 -4.32951,-0.0113 -8.42963,-1.85878 -11.71398,-5.2784 -2.27373,-2.36736 -2.27926,-2.37018 -3.57694,-1.82454 -0.71482,0.30055 -1.96459,1.42619 -2.77725,2.50142 -0.83196,1.10079 -2.60035,2.65705 -4.04729,3.56183 -2.38568,1.49177 -2.82052,1.61887 -6.071,1.77427 -6.18322,0.29562 -10.90873,-1.92096 -14.68677,-6.88911 -1.10634,-1.45484 -2.13764,-2.65559 -2.29177,-2.6683 -0.15421,-0.0129 -0.91236,0.92731 -1.68497,2.08896 -4.40119,6.61745 -10.64224,10.18112 -18.7536,10.70842 l -4.22423,0.27461 2.03995,1.06648 c 1.5543,0.81259 2.74186,1.9739 4.98835,4.87811 l 2.9484,3.81164 2.28312,-0.0524 c 2.91755,-0.0671 3.69473,0.44777 6.86796,4.54973 l 2.50703,3.24075 2.15927,-2.38606 c 3.00104,-3.31625 4.63647,-4.01975 10.03725,-4.31766 9.10341,-0.50212 10.69713,0.0218 14.33747,4.71348 1.16576,1.50244 2.25013,2.74276 2.40971,2.75627 0.15953,0.0129 0.66448,-1.20783 1.122,-2.71409 z m -64.23314,-5.12168 c 1.42464,-3.97439 2.81058,-7.70408 3.07985,-8.28818 0.58344,-1.26549 1.90617,-1.93792 3.93999,-2.0029 0.81935,-0.0263 2.01876,-0.16196 2.66535,-0.30173 1.15757,-0.25022 1.14227,-0.26959 -0.99437,-1.25991 -1.19347,-0.55316 -2.99758,-1.57138 -4.00911,-2.26268 l -1.83913,-1.2569 -2.58564,1.94503 c -3.86859,2.91008 -6.55587,3.79249 -11.46042,3.76325 -3.14387,-0.0187 -4.50139,-0.21451 -6.21178,-0.89565 -1.20378,-0.47941 -2.24695,-0.81341 -2.31813,-0.74221 -0.0712,0.0711 0.25803,1.0054 0.73163,2.07604 0.74435,1.68273 0.82825,2.41371 0.61894,5.39273 -0.13317,1.89538 -0.36095,3.95661 -0.50614,4.58052 -0.26364,1.13273 -0.26176,1.1339 1.29689,0.80462 4.9329,-1.04214 9.61801,0.35098 12.93727,3.84696 1.04248,1.09797 1.93347,1.95827 1.97997,1.91177 0.0465,-0.0465 1.25018,-3.33634 2.67483,-7.31076 z m -77.667867,-2.60289 c 4.213404,-1.57641 6.668304,-4.62476 7.545382,-9.36935 0.470266,-2.5439 -0.02987,-6.38763 -1.107657,-8.51298 -2.641364,-5.20857 -8.698666,-8.19186 -13.167564,-6.48516 -2.150539,0.82129 -4.65216,3.44146 -4.65216,4.87262 0,1.0294 0.147077,1.13961 2.085296,1.56278 0.593747,0.12969 1.194316,0.59734 1.334607,1.03937 0.982613,3.09591 -4.001232,4.62221 -9.224711,2.82507 -2.43282,-0.83701 -7.812338,-3.57746 -9.455274,-4.81673 l -0.969931,-0.73163 1.523765,-1.75669 c 0.838067,-0.9662 2.108858,-2.84294 2.823988,-4.17056 l 1.300237,-2.41384 3.098723,-0.31082 c 1.853761,-0.18593 4.513738,-0.84335 6.620793,-1.63632 10.107264,-3.80382 16.448717,-11.59242 18.395638,-22.59357 2.326582,-13.146489 -2.266175,-21.632539 -11.718222,-21.651769 -5.119985,-0.0103 -9.820625,2.95099 -13.44337,8.46936 -2.318624,3.531839 -3.622348,6.959159 -6.672432,17.540829 -1.222404,4.24092 -2.318338,8.02617 -2.435389,8.41164 -0.191849,0.63185 -0.322207,0.6443 -1.323293,0.12663 -1.576474,-0.81522 -3.751349,-3.34149 -4.883593,-5.67266 -0.765628,-1.57633 -0.997928,-2.79465 -1.108923,-5.81595 -0.124011,-3.37559 -0.03158,-4.0306 0.791825,-5.60875 1.172043,-2.24647 2.486407,-3.20941 5.216862,-3.82201 2.993748,-0.67169 3.053141,-1.54448 0.302934,-4.45243 -6.323846,-6.686519 -15.522839,-7.457639 -20.670057,-1.732679 -2.564549,2.852389 -3.534139,5.673319 -3.569742,10.385879 -0.03592,4.75574 0.935754,8.1377 3.638827,12.66484 3.439678,5.76081 10.785024,12.00884 15.954707,13.57126 0.85279,0.25773 1.64263,0.70862 1.755198,1.00195 0.112558,0.29337 -0.402388,1.53503 -1.144367,2.75928 -1.223212,2.01827 -1.443194,2.19593 -2.358649,1.90483 -0.555294,-0.17658 -2.490366,-0.32108 -4.300154,-0.32108 -3.779242,0 -5.284989,0.75457 -5.919301,2.96626 -0.8467,2.95229 1.515224,4.5275 7.198291,4.80068 l 3.620762,0.17405 4.425381,4.32843 c 2.433951,2.38064 5.059009,4.87001 5.833453,5.53194 1.751775,1.49727 6.519664,4.57143 8.6039,5.54747 4.854638,2.27342 12.031935,2.89477 16.05422,1.38983 z M 55.454417,127.01803 c 0,-1.18998 2.626336,-8.40623 4.786694,-13.15218 4.314284,-9.4777 8.846782,-14.955959 11.524002,-13.928619 1.956523,0.750789 2.191616,5.836829 0.513658,11.112489 -2.37879,7.47914 -6.984947,13.01814 -12.654911,15.21781 -3.031565,1.17608 -4.169443,1.38091 -4.169443,0.7505 z m 61.658963,23.18502 c 0.71614,-0.37955 2.26254,-0.88806 3.43647,-1.13002 l 2.1344,-0.43996 -2.33556,-3.09182 c -1.28455,-1.7005 -2.46872,-3.09627 -2.63149,-3.10172 -0.16277,-0.006 -0.86262,1.12161 -1.55523,2.50454 -0.69261,1.38293 -1.87196,3.37477 -2.62079,4.42629 -1.46137,2.05217 -1.62788,2.68964 -0.89415,3.42338 0.35491,0.35492 0.79173,0.18254 1.81581,-0.71662 0.74167,-0.65119 1.9344,-1.49452 2.65054,-1.87407 z m 129.71551,-0.40846 c 0.051,-0.17851 -0.34038,-0.85496 -0.86977,-1.50322 l -0.96253,-1.17866 -1.23474,1.32178 c -1.32089,1.41403 -1.49673,2.02068 -0.79041,2.72698 0.32419,0.32419 0.89308,0.24336 2.10448,-0.29899 0.91311,-0.40881 1.70194,-0.88935 1.75297,-1.06789 z m -106.82895,-0.99966 c 2.00123,-0.68285 5.33748,-2.90505 7.12176,-4.74363 0.86556,-0.8919 1.69099,-1.62164 1.83428,-1.62164 0.14329,0 0.79174,0.605 1.44099,1.34445 1.83104,2.08546 5.50051,3.83836 9.1325,4.3626 2.61606,0.37759 3.67194,0.34391 6.33054,-0.20204 4.45278,-0.91435 7.18717,-2.39513 10.52287,-5.69853 3.30366,-3.27169 5.46252,-7.20984 6.3999,-11.67454 0.75202,-3.5818 0.77005,-10.1343 0.0384,-13.94478 -1.55186,-8.0821 -6.12435,-15.83228 -11.9184,-20.201229 -1.43069,-1.07881 -2.66,-2.11493 -2.73178,-2.30249 -0.0718,-0.18757 0.77597,-1.24752 1.88389,-2.35544 l 2.01441,-2.0144 -1.03295,-0.812517 c -1.11835,-0.8797 -3.40832,-1.071901 -5.10145,-0.42817 -0.55602,0.21139 -1.70462,1.011047 -2.55245,1.777017 l -1.54152,1.39267 -2.60317,-0.64192 c -3.76592,-0.92867 -12.58357,-0.88491 -16.28157,0.0808 -6.35863,1.66052 -10.36029,4.52392 -12.53545,8.969779 -0.98377,2.01076 -1.1229,2.75381 -1.11029,5.92978 0.0123,3.10529 0.17245,3.95961 1.10603,5.9011 1.24058,2.57997 3.94623,5.27405 6.42853,6.40103 2.36389,1.07321 6.32307,1.04437 8.61008,-0.0627 3.33954,-1.61664 4.76577,-4.8244 2.73625,-6.1542 -2.10426,-1.37876 -3.06148,-4.77359 -2.34959,-8.33304 0.39543,-1.97715 3.85457,-5.292349 6.38037,-6.114829 2.52227,-0.82135 6.22288,-1.17548 6.22288,-0.59551 0,0.23325 -0.80723,2.25605 -1.79387,4.495099 -0.9866,2.23904 -2.89104,6.75235 -4.23206,10.02958 -5.69991,13.92956 -8.8594,18.31938 -13.45453,18.69391 -1.80758,0.14727 -2.15884,0.0424 -3.04872,-0.91024 -0.76486,-0.81883 -1.00578,-1.51118 -1.00578,-2.89038 0,-1.61238 0.1674,-1.94791 1.50866,-3.0239 1.81568,-1.45659 1.90397,-2.40518 0.32831,-3.52714 -2.88525,-2.05449 -7.43411,-2.60933 -11.11894,-1.35624 -3.08365,1.04864 -6.23297,4.42709 -7.40227,7.94083 -3.10408,9.32776 3.737,20.66128 13.73787,22.75932 2.03306,0.42649 6.11006,0.18888 8.03629,-0.46839 z m 12.63891,-11.55105 c -0.12178,-0.19696 0.67011,-2.23363 1.75961,-4.52596 2.23521,-4.7029 4.27371,-10.44681 7.04749,-19.85782 2.26797,-7.69487 3.80283,-12.35644 4.21001,-12.78638 0.44546,-0.470359 3.84158,3.3426 4.98067,5.59201 3.11495,6.15125 3.04325,14.39043 -0.18115,20.81336 -2.42776,4.83609 -6.9774,8.92084 -11.48783,10.31396 -2.72288,0.84102 -5.94576,1.07059 -6.3288,0.45083 z m -65.603347,8.41746 c 2.085731,-1.00281 2.614417,-1.46001 4.150975,-3.58967 l 1.27423,-1.76606 0.57348,1.36375 c 0.68841,1.63707 2.43143,3.36633 3.98461,3.95316 1.60493,0.60639 4.140892,0.53011 5.485042,-0.16498 1.92672,-0.99633 4.77281,-4.64215 6.71517,-8.60204 1.69784,-3.4614 1.82508,-3.93003 1.58367,-5.83346 -0.29075,-2.29243 -0.95974,-4.6962 -1.45783,-5.23811 -0.17808,-0.19374 -1.05872,1.10942 -1.95697,2.89595 -2.66985,5.31005 -5.26708,7.67721 -5.26485,4.79844 0.001,-1.64792 1.56376,-7.51001 3.18383,-11.94505 0.68229,-1.86782 1.24054,-3.62593 1.24054,-3.90691 0,-0.75406 -3.7999,-1.74896 -6.679892,-1.74896 h -2.51078 l -0.48088,1.4571 -0.48089,1.45711 -1.46127,-1.65674 c -4.41794,-5.00891 -10.453337,-3.24275 -14.9498,4.37482 -2.183484,3.6991 -3.245285,7.20278 -3.505774,11.56814 -0.384485,6.44323 1.478696,10.87828 5.298948,12.6134 2.07883,0.94418 3.246289,0.93754 5.258441,-0.0298 z M 86.422095,135.3631 c -0.547073,-1.43889 -0.492732,-2.50679 0.255974,-5.03022 1.555524,-5.24276 4.072679,-8.42088 6.669569,-8.42088 0.84307,0 1.53285,0.14307 1.53285,0.31804 0,0.17492 -0.54103,1.98719 -1.20228,4.02729 -1.22818,3.78914 -2.71438,7.05757 -4.10669,9.03138 -1.030942,1.46148 -2.607895,1.49872 -3.149423,0.0744 z m 116.626365,9.2202 c 2.14622,-0.69316 5.22911,-3.32375 6.28249,-5.36078 0.36208,-0.70019 1.11873,-1.2435 2.17067,-1.55867 0.88816,-0.26612 2.14787,-1.01683 2.79933,-1.66831 l 1.18446,-1.18446 0.51698,1.24811 c 0.90002,2.17284 3.53068,5.11153 5.66894,6.33275 3.6533,2.08648 8.66056,2.37678 11.90422,0.69016 1.31744,-0.68506 3.95185,-3.2595 4.79784,-4.68864 0.78723,-1.32989 3.31741,-2.19963 3.61982,-1.2443 1.46003,4.61202 3.76093,6.60235 7.63261,6.60235 1.51652,0 2.56608,-0.28142 3.83133,-1.02736 1.73715,-1.02414 4.23742,-3.9271 5.19126,-6.02737 0.63992,-1.40903 0.9614,-1.39341 1.57016,0.0763 0.62914,1.51884 4.60631,5.31726 6.66607,6.36646 5.70568,2.90635 13.65076,2.81536 19.23009,-0.22026 6.03069,-3.28118 9.36876,-8.86483 9.05183,-15.14107 -0.12388,-2.45277 -0.3294,-3.16199 -1.27614,-4.40323 -1.56424,-2.05082 -2.68059,-2.68633 -5.16741,-2.94166 -3.05464,-0.31364 -3.40644,0.20292 -3.64063,5.34568 -0.16001,3.51495 -0.36132,4.44495 -1.48009,6.83921 -2.1164,4.52918 -4.2221,6.19068 -7.84573,6.19068 -3.57944,0 -6.28427,-2.00041 -7.29165,-5.39262 -0.89097,-3.00015 -0.78886,-3.24659 0.83259,-2.00986 3.03884,2.31785 7.82078,1.57695 10.43819,-1.61727 1.84885,-2.25628 2.62178,-4.57334 2.61099,-7.82715 -0.02,-6.04039 -3.72743,-9.67745 -9.884,-9.69652 -2.38833,-0.006 -3.2538,0.19171 -5.31887,1.22363 -2.90479,1.45154 -5.38143,4.07587 -6.80983,7.21597 -2.70622,5.9492 -3.33044,7.16545 -4.49078,8.75017 -1.29216,1.76479 -2.30236,2.17021 -2.71675,1.09032 -0.49232,-1.28296 1.32277,-8.35957 5.9186,-23.07498 0.94564,-3.02794 1.19536,-4.36067 0.90456,-4.82768 -0.93578,-1.50276 -8.21409,-2.27581 -8.91441,-0.94684 -0.40344,0.76561 -7.34036,22.4386 -8.51141,26.59216 -0.39609,1.40488 -0.87418,2.70761 -1.06243,2.89493 -0.18828,0.18734 -0.34668,-1.77677 -0.35204,-4.36469 -0.0129,-5.92321 -0.72041,-8.233 -3.35931,-10.9568 -2.73925,-2.82739 -6.83271,-3.57959 -9.60536,-1.76504 -0.49785,0.32582 -0.90519,0.44115 -0.90519,0.25628 0,-0.39913 1.85668,-5.81458 3.55723,-10.37553 1.03032,-2.76332 1.13957,-3.39634 0.72911,-4.224219 -0.56384,-1.13728 -2.97211,-1.89752 -6.16839,-1.9472 l -2.0832,-0.0324 -0.88001,2.313259 c -1.84389,4.84699 -6.06267,17.93279 -6.80765,21.11607 -0.42789,1.82824 -0.89955,4.44271 -1.04816,5.80993 -0.21176,1.94818 -0.49896,2.70493 -1.32782,3.49885 l -1.05761,1.01303 -0.0471,-4.50462 c -0.0523,-5.01046 -0.79414,-7.67255 -2.9779,-10.68715 -1.77983,-2.45699 -3.96283,-3.42219 -7.00109,-3.09545 -1.34499,0.14469 -3.74046,0.24207 -5.32328,0.2165 -2.16437,-0.035 -3.27388,0.1555 -4.47534,0.7685 -2.97988,1.52023 -5.31244,5.1129 -6.58386,10.14067 -1.7787,7.03384 0.19741,14.41598 4.79844,17.92535 3.61614,2.75816 8.36985,3.63046 12.50562,2.29476 z m -5.5797,-8.10023 c -2.42745,-0.76604 -3.6916,-4.61097 -2.8523,-8.67533 0.73992,-3.58312 1.04303,-3.89702 1.6056,-1.66284 0.65121,2.58625 1.83159,4.85244 3.69371,7.09159 1.28043,1.53972 1.45742,1.95158 1.00125,2.33016 -0.75747,0.62865 -2.71318,1.14839 -3.44826,0.91642 z m 28.37745,-1.44471 c -0.52492,-0.52492 -1.14931,-1.6564 -1.38754,-2.51441 -0.46982,-1.69202 -0.51848,-5.41154 -0.0908,-6.93577 0.23078,-0.82245 0.33531,-0.69382 0.77644,0.95555 0.57841,2.16259 2.88082,5.84082 4.40812,7.04218 0.992,0.78031 1.00118,0.82964 0.29863,1.60595 -0.99042,1.09439 -2.82739,1.02399 -4.00488,-0.15356 z m -22.71027,-6.83416 c -1.77496,-2.87193 -2.61902,-7.17978 -1.69304,-8.64067 0.61815,-0.9752 2.21465,-0.36054 2.96504,1.14154 1.01515,2.03215 0.92727,8.85076 -0.11405,8.85076 -0.17743,0 -0.69849,-0.60823 -1.15794,-1.35163 z m 28.59917,-1.56509 c -1.58493,-3.36167 -1.45235,-7.38778 0.23264,-7.06475 0.93572,0.1794 1.65798,2.41632 1.68592,5.22146 0.039,3.92063 -0.63419,4.56745 -1.91856,1.84329 z m 36.53965,0.0855 c 0,-0.84267 2.04155,-4.58237 3.12144,-5.71783 1.27422,-1.33984 2.91317,-1.50058 2.91317,-0.28572 0,1.33288 -1.45604,3.79484 -2.89024,4.88698 -1.63216,1.2429 -3.14437,1.77987 -3.14437,1.11657 z"
         style="fill:#ffffff;stroke-width:0.40230691" />
    </g>
  </g>
</svg>
