    <svg
      xmlns="http://www.w3.org/2000/svg"
      width="363.925"
      height="210.006"
      version="1.1"
      viewBox="0 0 96.289 55.564"
    >
      <g transform="translate(-6.648 -92.143)">
        <path
          fill="#000"
          strokeWidth="0.353"
          d="M-107.988 311.74c-1.476-.437-3.906-1.493-5.4-2.348-2.227-1.274-3.075-2.03-4.724-4.212-1.105-1.463-2.203-2.865-2.44-3.117-.238-.252-.61-1.054-.829-1.782-.538-1.797.242-3.672 1.948-4.678.836-.493 1.252-1 1.252-1.52 0-.645-.387-.914-2.204-1.528-4.92-1.663-9.038-2.13-22.578-2.563-11.385-.364-17.112-.958-20.786-2.157-5.166-1.686-10.08-4.967-13.007-8.688-1.508-1.917-1.732-2.067-2.296-1.538-.54.506-4.429 1.743-6.205 1.974l-1.637.213-.798 2.48c-2.431 7.563-8.888 12.305-16.753 12.305-3.073 0-5.552-.702-7.799-2.208-1.637-1.098-5.55-5.598-7.436-8.552-.496-.776-.952-1.47-1.014-1.542-.062-.071-.654.445-1.317 1.147l-1.204 1.277h-3.185c-6.29 0-9.643-1.742-13.92-7.232-3.461-4.443-4.425-6.058-4.722-7.915-.236-1.477-.237-1.479-1.528-1.26-3.041.513-8.208-1.108-11.11-3.486-1.68-1.377-7.36-8.743-8.406-10.9-1.8-3.714-2.227-9.34-1.007-13.263l.666-2.139-3.51-3.449-3.509-3.449-2.889-.415c-5.823-.837-6.67-1.352-10.58-6.433-3.439-4.47-3.81-5.566-2.925-8.612.534-1.836 2.148-3.744 4.29-5.07.47-.292.558-.511.283-.706-.219-.156-2.02-2.426-4-5.045-5.605-7.407-7.403-11.82-7.414-18.183-.009-5.45 1.504-9.512 4.702-12.627 6.05-5.893 16.009-5.376 22.819 1.185 1.203 1.159 2.222 2.108 2.265 2.108.043 0 .67-.86 1.393-1.91 4.853-7.047 12.354-10.131 19.37-7.964 3.313 1.023 5.218 2.512 8.57 6.699 3.407 4.255 4.866 6.994 5.498 10.325l.445 2.35 1.713.367c.942.202 2.058.553 2.48.779.435.234 2.517.436 4.823.468 5.111.07 7.535.887 9.79 3.295.824.881 1.5 1.706 1.5 1.833 0 .126.333.612.74 1.078.409.466.952 1.142 1.207 1.503.433.61.604.514 2.522-1.433 1.88-1.91 3.528-2.959 6.238-3.972.762-.284.944-.524.752-.988-1.177-2.85-1.101-8.933.152-12.167 1.91-4.929 6.383-8.548 13.083-10.585 2.823-.859 12.602-1.274 15.477-.657 1.738.373 1.885.345 3.21-.615 2.775-2.01 6.172-2.296 9.301-.782 1.226.594 2.293 1.67 4.618 4.662 2.743 3.528 3.024 4.034 3.024 5.433 0 .848-.176 1.928-.39 2.4-.35.767-.194 1.11 1.495 3.28 1.037 1.331 2.074 2.62 2.304 2.86.23.242.918 1.314 1.53 2.382.61 1.068 1.207 1.942 1.326 1.942.118 0 .937-.35 1.819-.776 1.61-.78 4.565-1.08 11.143-1.134 2.844-.023 4.773.777 6.96 2.887.724.699 1.373 1.201 1.442 1.117.07-.085 1.047-2.853 2.174-6.151 1.127-3.299 2.403-6.806 2.836-7.794 1.402-3.2 3.832-4.128 8.672-3.314 4.445.747 5.837 1.576 8.663 5.158 1.364 1.73 2.678 3.515 2.92 3.968.539 1.006.349 2.838-.525 5.058l-.654 1.664.842.896.842.897 1.205-3.796a288.274 288.274 0 001.912-6.265c.825-2.879 1.575-3.819 3.694-4.628 2.523-.964 8.182-.184 11.085 1.528.588.347 1.961 1.821 3.05 3.277 1.089 1.455 2.087 2.725 2.217 2.822.131.097.426.533.656.97.36.685.7.794 2.485.794 4.36 0 8.768 2.217 11.097 5.584.876 1.265 1.197 1.472 2.293 1.475 1.916.006 4.67.84 6.264 1.895 1.24.82 4.832 4.966 7.067 8.155 1.689 2.41 2.291 6.673 1.48 10.478-1.417 6.658-7.45 12.711-14.55 14.6-6.415 1.708-13.648.34-18.695-3.533-1.204-.925-1.828-1.207-2.089-.946-.26.261.128.812 1.304 1.847 1.458 1.284 4.655 5.094 7.658 9.128 1.47 1.974 3.066 5.39 3.906 8.361 1.051 3.719 1.12 10.693.144 14.57-2.415 9.585-9.474 17.798-18.15 21.117-1.484.567-3.412 1.14-4.285 1.271-3.069.465-3.02.351-1.224 2.868 6.002 8.41 5.61 18.856-.947 25.272-4.655 4.555-11.22 6.025-17.975 4.025zm12.869-2.462c4.656-2.3 7.594-6.528 8.395-12.077.762-5.28-.852-10.155-5.16-15.584-1.269-1.6-2.308-2.965-2.308-3.034 0-.068 1.39-.223 3.087-.343 6.345-.451 11.06-2.728 16.18-7.815 3.233-3.211 3.736-3.893 5.34-7.245 2.542-5.31 3.037-7.39 3.06-12.873.023-5.095-.465-7.526-2.3-11.461-2.04-4.378-9.758-13.592-11.972-14.295-.403-.128-.685-.36-.626-.517.187-.493 3.109-3.537 3.378-3.52.142.01.893.65 1.669 1.424.776.773 2.522 1.958 3.88 2.633 7.597 3.777 16.557 2.576 22.519-3.019 3.646-3.421 5.527-7.475 5.527-11.908 0-3.395-.552-4.65-3.999-9.098-3.775-4.87-5.16-5.793-9.118-6.077l-2.391-.17-1.44-1.907c-2.84-3.763-6.2-5.301-10.816-4.952-2.327.176-2.575.133-2.575-.448 0-.945-4.84-7.347-6.013-7.954-1.446-.748-5.17-1.568-7.145-1.574-1.842-.006-3.57.705-4.072 1.674-.175.338-1.309 3.868-2.52 7.846-1.211 3.977-2.272 7.306-2.357 7.397-.086.091-.578-.385-1.094-1.058a32.544 32.544 0 00-2.14-2.448l-1.202-1.224.799-2.128c1.374-3.658 1.342-3.943-.764-6.717-1.029-1.356-2.373-2.972-2.988-3.59-1.44-1.452-4.432-2.344-7.975-2.377-2.313-.022-2.834.085-3.463.713-.752.75-2.665 5.725-5.321 13.838-.806 2.46-1.528 4.544-1.605 4.632-.078.087-1.08-.882-2.228-2.154-2.736-3.032-4.844-4.007-7.92-3.661-1.178.132-3.218.218-4.535.191-2.861-.059-4.562.426-6.316 1.8-.716.56-1.377 1.02-1.469 1.02-.092 0-.722-.994-1.4-2.207-.679-1.213-2.668-4.097-4.421-6.41l-3.188-4.203.887-1.055c.662-.786.83-1.286.659-1.966-.232-.923-3.343-5.207-5.292-7.288-2.308-2.464-6.789-2.507-9.54-.092l-1.233 1.083-2.172-.427c-1.195-.235-4.175-.427-6.622-.427-12.257 0-20.282 5.18-21.485 13.869-.373 2.696.049 6.137 1.021 8.335.385.87.7 1.628.7 1.685 0 .056-.799.273-1.775.483-3.88.832-7.206 3.542-9.008 7.34-.57 1.199-1.154 2.188-1.3 2.197-.145.01-.264-.548-.264-1.24 0-1.594-.307-2.157-3.098-5.676-2.312-2.914-3.238-3.557-6.25-4.338-1.854-.48-5.326-.47-6.238.017-.585.313-1.053.208-2.454-.555-.952-.518-2.562-1.028-3.577-1.133l-1.846-.19-.618-3.154c-.34-1.734-.918-3.74-1.284-4.458-1.331-2.61-6.791-9.29-8.458-10.35-3.883-2.467-8.955-2.75-13.225-.737-2.947 1.389-6.929 5.228-8.683 8.372-.65 1.165-1.228 2.177-1.286 2.25-.057.072-.536-.404-1.065-1.059-.529-.655-1.785-1.991-2.791-2.97-7.226-7.022-18.443-6.1-22.646 1.861-1.508 2.856-1.971 5.337-1.77 9.474.206 4.196 1.076 7.123 3.14 10.554 1.736 2.888 7.182 10.122 8.746 11.618.596.57 1.084 1.147 1.084 1.281 0 .135-.746.433-1.657.662-3.701.932-6.017 5.042-4.468 7.928 1.165 2.17 5.372 7.218 6.5 7.802 1.311.678 5.292 1.561 7.076 1.57 1.04.005 1.6.317 3.018 1.682.957.921 2.951 2.801 4.431 4.177l2.691 2.503-.858 2.364c-.669 1.842-.858 3.06-.858 5.516 0 4.835.817 6.879 4.911 12.276 5.163 6.807 7.782 8.354 14.042 8.293l3.255-.032.195 1.281c.484 3.178.885 3.91 4.998 9.11 3.693 4.669 6.527 6.092 12.143 6.101 3.55.006 3.698-.174 4.2-5.107.216-2.126.437-3.91.492-3.965.054-.054.431 1.132.837 2.637 1.045 3.873 1.553 4.934 3.784 7.885 5.264 6.969 6.877 8.105 11.855 8.359 4.708.24 8.16-.951 11.522-3.975 2.731-2.455 5.352-7.72 4.933-9.911-.153-.799-.062-.858 1.326-.858 2.5 0 5.18-.65 7.508-1.823 1.292-.65 2.334-.981 2.498-.793.155.178 1.03 1.295 1.944 2.481 4.207 5.464 10.32 8.602 18.741 9.622 1.747.211 7.779.543 13.406.736 11.563.398 13.588.544 17.815 1.286 3.723.654 5.815 1.257 7.706 2.221 1.304.666 1.466.887 1.466 2 0 1.65-.431 2.384-1.92 3.262-1.393.822-1.872 2.08-1.24 3.261.236.44 1.454 2.109 2.707 3.709 2.03 2.59 2.595 3.068 5.158 4.365 4.163 2.106 5.774 2.479 10.182 2.358 3.538-.097 3.94-.185 6.41-1.407zm-14.948-6.744c-2.945-.754-4.511-1.514-5.158-2.502-.561-.855-.544-.979.394-2.832.828-1.638.95-2.228.786-3.818-.706-6.842-6.268-10.706-17.541-12.185-1.65-.217-8.714-.625-15.699-.907-13.641-.552-15.843-.79-19.932-2.161-3.499-1.173-5.543-2.32-7.924-4.441-2.408-2.147-3.855-4.202-4.883-6.936l-.782-2.081-1.584 1.561c-.871.859-2.457 1.992-3.524 2.518-1.698.837-2.36.957-5.292.958-3.687 0-5.07-.49-7.947-2.822-5.622-4.557-4.967-15.673 1.268-21.505 2.53-2.367 4.496-3.173 7.738-3.173 5.162 0 8.262 2.972 8.265 7.923.003 5.742-3.335 9.849-8.024 9.87-1.814.008-2.737-.339-4.083-1.536l-.843-.75.234 1.525c1.234 8.05 11.852 3.887 14.293-5.604.598-2.323 3.285-10.062 6.444-18.557 1.245-3.347 1.516-3.505 5.048-2.941 3.412.545 4.188.911 3.939 1.86-.114.433-1.71 5.232-3.546 10.665-4.279 12.655-4.837 15.872-3.522 20.299 2.306 7.767 10.218 10.145 26.421 7.94 3.687-.502 9.164-1.253 12.171-1.669 7.2-.996 18.943-1.088 22.868-.18 7.75 1.795 13.41 6.104 15.94 12.137 3.118 7.437.501 15.186-6.251 18.51-2.664 1.311-6.175 1.627-9.274.834zm-81.75-48.434c1.821-1.382 2.796-2.769 2.854-4.06.066-1.468-.753-1.637-2.166-.449-1.093.92-2.61 3.246-3.054 4.685-.35 1.134.747 1.052 2.366-.176zm-19.913 30.486c-5.465-1.544-7.907-7.627-6.964-17.345.877-9.035 4.505-20.938 9.275-30.427.902-1.795 1.52-3.26 1.372-3.255-.598.02-6.567 8.675-10.212 14.808-7.037 11.842-10.694 20.124-10.694 24.221 0 2.602-1.356 3.117-5.423 2.058-2.97-.773-4.915-2.248-6.063-4.594-.858-1.755-.932-2.196-.72-4.323.723-7.277 7.023-22.882 12.793-31.688l.624-.952-2.281.252c-2.153.237-5.888.955-7.676 1.475l-.808.235.762-1.291c.42-.71 1.042-2.2 1.385-3.308l.623-2.017 5.76-.275 5.76-.275 1.01-1.225c3.124-3.79 8.718-4.223 8.718-.675 0 .841-.332 1.477-1.251 2.396-.689.689-1.55 1.347-1.914 1.462-1.466.465-4.84 7.117-7.097 13.992-.773 2.353-1.358 4.42-1.3 4.594.058.174 1.247-1.396 2.642-3.489 3.644-5.466 8.118-10.953 12.79-15.685 3.25-3.29 4.373-4.208 5.586-4.56 1.839-.533 3.054-.184 4.059 1.167.975 1.309.9 4.104-.229 8.57-3.61 14.288-5.049 27.77-3.576 33.528.99 3.869 3.353 6.16 6.354 6.16 2.424 0 2.849 1.078 1.494 3.79-1.125 2.253-4.404 5.162-6.85 6.077-2.559.957-5.813 1.202-7.949.599zm111.012-14.678c-3.15-.77-5.727-2.926-7.194-6.019-.824-1.737-.918-2.346-.9-5.82.017-3.238.177-4.35.966-6.703.52-1.553.947-2.942.95-3.087.002-.146-.376-.265-.841-.265-1.068 0-2.655 1.77-3.84 4.285-2.072 4.399-3.781 11.004-3.781 14.613v1.993l-2.59-.13c-3.834-.194-5.675-1.613-6.209-4.787-.206-1.223-.31-1.325-1.27-1.235-.64.06-1.317.46-1.75 1.035-1.802 2.395-3.21 3.681-4.975 4.544-1.717.84-2.215.921-4.834.784-3.5-.184-5.537-1.05-7.806-3.32-.853-.852-1.824-2.265-2.158-3.14-.334-.874-.704-1.589-.824-1.588-.119 0-.651.689-1.183 1.53-1.322 2.093-4.03 4.699-5.748 5.53-5.774 2.795-12.31.713-15.016-4.785-3.056-6.207-.433-12.98 5.057-13.06 1.789-.026 1.79-.026 3.852-2.601 1.267-1.582 2.062-2.912 2.062-3.45 0-3.286 3.91-5.326 5.285-2.757.394.738.396 1.125.011 2.292-.427 1.293-.392 1.565.443 3.443 1.136 2.554 2.726 7.43 2.733 8.38.003.393.144.934.314 1.202.493.777 1.422-.962 1.993-3.73.697-3.374 1.462-5.272 3.041-7.546 2.28-3.28 4.015-4.168 8.229-4.21a414.69 414.69 0 004.668-.075c1.958-.046 2.345.065 3.528 1.013 2.851 2.287 4.186 6.387 3.894 11.963l-.176 3.372 1-.958c1-.959 1.626-2.597 4.181-10.953 1.25-4.083 1.374-4.18 4.855-3.774 2.716.316 4.458 1.05 4.185 1.761-.115.3-.299.966-.408 1.482l-.198.937.817-.911c3.104-3.46 7.507-4.367 9.726-2.003 1.483 1.58 1.697 3.58.863 8.059-1.033 5.543-1.086 6.179-.725 8.759.562 4.03 2.214 5.675 5.697 5.675 5.004 0 8.814-4.945 9.302-12.076.381-5.56-1.385-10.609-4.947-14.142-1.835-1.82-4.84-3.415-6.435-3.415-.668 0-1.992-.679-2.34-1.2-.469-.702-.265-2.832.414-4.327 1.565-3.447 5.454-5.762 9.682-5.762 8.51 0 15.293 7.71 15.979 18.166.547 8.344-3.259 17.106-9.664 22.25-2.247 1.804-6.765 4.074-9.34 4.694-1.816.437-6.9.477-8.575.067zm-34.637-8.541c1.212-.638 1.292-1.045.392-2.015-1.29-1.392-2.92-4.684-3.45-6.975l-.48-2.07-.58 1.916c-.733 2.422-.759 6.417-.05 7.786.874 1.691 2.518 2.227 4.168 1.358zm-22.88-2.325c1.112-1.2 1.402-2.664 1.141-5.774-.29-3.45-.592-3.835-1.746-2.213-.84 1.18-.88 1.376-.42 2.033.838 1.195.65 1.982-.47 1.982-2.335 0-3.416 2.462-1.828 4.167.976 1.047 2.24.973 3.323-.195zm27.53-7.658c0-3.094-.101-3.762-.671-4.391-.37-.409-.96-.743-1.31-.743-2.028 0-1.752 5.453.43 8.518 1.176 1.651 1.552.833 1.552-3.384zm36.726 11.006c.064-.437.465-2.813.892-5.28.974-5.63.717-7.23-1.683-10.46-.884-1.19-1.75-2.163-1.926-2.163-.175 0-.318-.18-.318-.4 0-.676 4.9-.175 6.547.67 1.728.885 2.22 2.117 2.516 6.296.375 5.29-1.482 10.04-4.547 11.635-1.315.684-1.614.624-1.48-.298zm3.855-6.055c.618-2.08.672-5.633.12-7.823-.404-1.608-1.37-2.614-2.507-2.614-.562 0-.532.151.266 1.357 1.436 2.17 1.807 5.044 1.107 8.572-.322 1.621-.58 3.106-.573 3.3.024.75 1.094-1.132 1.587-2.792zm-164.934 1.956c-3.341-1.107-5.968-3.36-7.294-6.256-.987-2.155-1.65-5.757-1.352-7.337.73-3.866 1.827-6.441 2.689-6.311.269.04 1.838.498 3.487 1.017 3.608 1.135 9.357 1.338 11.893.42 1.752-.634 2.025-.496 1.277.646-.303.463-.632 1.846-.73 3.074-.222 2.761.63 4.95 2.512 6.451 1.898 1.514 1.631 2.735-1.175 5.37-2.183 2.05-4.397 2.951-7.59 3.092-1.56.07-3.232-.006-3.717-.166zm130.475-15.367c-3.196-4.127-4.108-4.414-12.674-3.991-4.531.224-5.755.76-8.496 3.72l-1.938 2.094-2.266-2.93c-2.576-3.331-4.022-4.197-6.456-3.865l-1.455.198-2.6-3.374c-1.998-2.59-3.021-3.595-4.41-4.324l-1.81-.95 3.528-.204c7.406-.428 12.849-3.57 16.924-9.77.542-.825 1.083-1.493 1.203-1.486.12.008.932.976 1.805 2.152 1.825 2.456 3.261 3.678 5.997 5.101 1.803.938 2.228 1.01 5.998 1.017 3.719.006 4.205-.072 5.835-.932 1.715-.906 4.748-3.789 4.748-4.515 0-.194.655-.687 1.456-1.096l1.457-.743 1.544 1.765c3.81 4.356 9.772 6.079 14.854 4.293 2.43-.854 2.776-.87 3.058-.134.138.36-.13.916-.72 1.5-1.617 1.595-3.027 5.069-3.08 7.588-.044 2.024.071 2.4 1.312 4.268 1.272 1.916 1.306 2.034.53 1.814-3.431-.973-5.737-.908-7.9.22-.997.52-1.22.51-3.176-.151-2.752-.93-6.635-1.021-8.174-.19-.948.51-1.252 1.012-1.867 3.078-.404 1.357-.847 2.457-.985 2.444-.137-.013-1.146-1.181-2.242-2.597zm4.36-4.53c1.69-.859 6.246-.878 8.914-.037 1.745.55 1.975.55 3.33.009.8-.32 2.108-.582 2.907-.582h1.452l-.215-1.852c-.244-2.109.493-6.2 1.335-7.402.301-.43.547-.865.547-.967 0-.102-1.548-.19-3.44-.194-4.786-.012-7.709-1.203-11.352-4.626-.86-.808-1.733-1.393-1.94-1.301-.208.092-.859.827-1.447 1.634-1.36 1.868-4.387 3.99-6.65 4.661-2.258.67-6.214.667-8.804-.007-2.628-.685-5.62-2.565-7.748-4.87l-1.693-1.833-.952 1.216c-1.55 1.98-4.289 4.447-6.267 5.645-2.151 1.304-6.252 2.822-7.65 2.833-.548.004-.962.2-.952.448.01.243.862 1.46 1.893 2.705 1.816 2.193 1.928 2.265 3.668 2.353 2.481.126 3.45.689 5.513 3.203.98 1.197 1.925 2.19 2.097 2.205.172.016 1.018-.62 1.878-1.413 2.405-2.216 4.149-2.835 8.337-2.959 1.97-.058 3.862-.22 4.204-.36.342-.141 1.651-.061 2.91.176 2.587.488 4.998 1.904 6.423 3.773l.929 1.217.732-1.504c.487-1 1.17-1.727 2.042-2.17zm-61.334 5.14c-2.473-2.931-6.646-4.394-10.582-3.71-1.136.197-2.123.304-2.193.237-.07-.068.065-.928.301-1.913.68-2.833.572-5.595-.294-7.553-.418-.946-.761-1.763-.761-1.814 0-.052 1.23.3 2.734.782 5.207 1.668 10.554.711 15.053-2.694l2.206-1.67 1.028.843c.565.463 2.139 1.385 3.497 2.049l2.47 1.206-1.412.014c-2.315.023-3.973.405-4.702 1.084-.7.652-1.205 1.869-4.212 10.14l-1.705 4.693zm3.097-7.96c1.826-5.216 2.024-5.605 3.47-6.847.796-.683.827-.793.282-1.006-.399-.156-.988.077-1.689.667-1.492 1.255-5.154 2.95-7.428 3.438-1.155.247-3.116.321-4.994.188l-3.092-.22v2.819c0 1.55-.04 2.905-.088 3.012-.049.107.982.246 2.291.31 2.79.134 6.042 1.257 7.72 2.663 1.448 1.213 1.237 1.513 3.528-5.025zm-77.38.975c-4.929-1.24-9.976-4.6-16.533-11.003l-4.086-3.99h-2.516c-3.095 0-6.283-1.072-6.843-2.301-.805-1.766.81-4.178 3.083-4.605.688-.129 2.156-.13 3.263 0 3.935.456 3.59.582 4.893-1.78l1.191-2.162-2.036-.816c-10.856-4.354-18.54-15.737-17.026-25.218.73-4.575 2.736-7.515 6.265-9.184 1.768-.837 2.285-.918 4.996-.786 3.999.195 6.96 1.592 9.74 4.594 2.572 2.778 2.51 3.452-.366 3.966-3.345.597-5.171 3.385-5.171 7.891 0 3.947.985 6.38 3.64 8.995 1.147 1.13 2.274 1.991 2.505 1.914.23-.077.94-2.033 1.579-4.346 4.086-14.818 5.613-18.306 9.842-22.483 2.498-2.468 5.426-3.773 8.47-3.775 7.61-.005 11.453 5.2 10.941 14.819-.2 3.742-1.145 8.1-2.353 10.843-3.386 7.688-11.534 13.503-20.264 14.463l-2.453.27-1.27 2.25c-.7 1.236-1.806 2.885-2.46 3.664-1.377 1.64-1.524 1.417 2.525 3.84 4.695 2.809 9.793 3.881 12.296 2.587 1.055-.545 1.642-1.852 1.269-2.823-.215-.56-.436-.669-2.115-1.039-.918-.202-.992-.327-.799-1.352.395-2.102 3.82-4.473 6.471-4.48 1.283-.002 4.06 1.073 5.569 2.157 4.256 3.058 5.827 9.922 3.373 14.733-.997 1.954-2.982 3.864-4.929 4.743-2.086.942-7.728 1.16-10.69.415zm-3.428-33.897c3.906-1.14 7.402-3.89 9.827-7.729 1.773-2.807 2.381-4.273 3.222-7.763.814-3.375.864-5.416.175-7.067-.412-.984-.705-1.223-1.5-1.22-2.534.005-5.18 3.192-8.876 10.686-1.358 2.755-3.06 6.756-3.78 8.89a462 462 0 01-1.473 4.322c-.212.57.094.556 2.406-.119zm47.813 22.22c-.133-.347.428-1.53 1.463-3.086.924-1.388 1.98-3.198 2.35-4.022.367-.825.764-1.495.88-1.488.116.006 1.12 1.236 2.233 2.734l2.022 2.722-1.52.227c-1.747.26-3.893 1.278-5.439 2.579-1.239 1.042-1.688 1.118-1.989.335zm5.361-4.323c.368-.233.356-.375-.063-.723-.425-.353-.593-.298-.911.296-.422.788.068 1.002.974.427zm108.93 2.89c-.143-.374.132-.982.757-1.674.54-.598 1.031-1.165 1.093-1.26.167-.258 1.458 1.512 1.467 2.012.01.472-1.766 1.508-2.582 1.508-.28 0-.61-.264-.735-.586zm-96.849-1.226c-2.831-.47-5.225-1.703-7.637-3.937-6.125-5.67-7.12-15.058-2.132-20.126 2.595-2.638 3.985-3.225 7.638-3.225 3.13 0 4.724.498 6.302 1.968.972.905.949 1.215-.162 2.176-2.119 1.83-2.39 4.293-.653 5.924 1.928 1.812 5.243.58 7.868-2.923 2.373-3.167 3.638-5.8 8.344-17.37 1.103-2.711 2.39-5.691 2.862-6.622 1.061-2.094.783-2.277-2.562-1.695-3.803.662-6.134 2.21-7.571 5.026-1.346 2.639-.516 6.852 1.627 8.256 1.352.886 1.16 2.222-.566 3.93-3.436 3.402-9.439 2.788-13.15-1.345-1.896-2.11-2.838-4.738-2.838-7.912 0-6.433 4.042-10.889 11.737-12.937 3.609-.96 11.117-1.03 14.614-.134l2.394.612.727-.924c1.488-1.892 4.364-2.768 6.467-1.968 1.448.55 1.38 1.153-.33 2.937-.878.916-1.597 1.82-1.597 2.009 0 .188.62.733 1.378 1.212 3.147 1.986 7.308 7.062 9.172 11.187 2.12 4.691 2.668 7.392 2.674 13.175.005 4.561-.108 5.657-.817 7.938-1.03 3.316-3.44 7.247-5.674 9.255-6.588 5.923-16.618 6.277-22.114.782l-1.486-1.486-1.708 1.75c-3.626 3.71-8.053 5.254-12.807 4.467zm25.25-11.561c3.159-1.478 6.315-4.683 8.022-8.146 1.779-3.609 2.335-5.941 2.34-9.816.006-5.049-1.58-9.17-4.892-12.716-.595-.637-1.239-1.06-1.43-.942-.372.229-2.058 5.262-3.905 11.656-2.464 8.526-5.412 16.559-7.122 19.403-1.137 1.891-.946 2.065 2.022 1.84 1.924-.145 3.3-.5 4.966-1.279zm-69.137 8.635c-7.134-2.604-6.756-17.348.635-24.741 3.149-3.15 6.078-3.762 8.866-1.851.61.418 1.41 1.208 1.777 1.757.367.548.757.997.867.997.11.001.464-.554.788-1.233.574-1.203.642-1.235 2.647-1.235 1.132 0 2.898.25 3.923.554 2.161.641 2.143.3.297 5.443-2.29 6.382-2.92 10.048-1.8 10.478.785.301 1.837-1.051 3.874-4.98 1.584-3.054 1.645-3.122 2.084-2.284.741 1.416 1.254 4.953.897 6.196-.528 1.842-3.154 6.628-4.496 8.196-3.446 4.026-8.495 3.662-10.759-.775l-.751-1.473-.568.868c-2.454 3.746-5.325 5.162-8.281 4.083zm6.959-10.005c1.13-1.796 2.234-4.341 3.244-7.482 1.042-3.236 1.047-3.396.117-3.64-2.307-.603-5.222 2.83-6.533 7.697-.677 2.51-.608 3.933.23 4.77.904.906 1.776.507 2.942-1.345zm92.186 8.921c-4.856-1.335-8.097-5.483-8.818-11.287-.587-4.73.79-9.63 3.736-13.296 1.58-1.967 3.583-2.814 6.501-2.749 1.32.03 3.302-.058 4.405-.195 1.687-.209 2.269-.122 3.648.546 3.319 1.606 5.26 6.06 5.246 12.041-.008 3.584.175 3.867 1.407 2.185.436-.597.765-1.896.956-3.778.394-3.875 4.331-16.857 6.904-22.763l.829-1.903 2.463.207c3.164.265 4.375.833 4.523 2.122.064.55-.54 2.724-1.365 4.916-2.723 7.235-2.882 7.782-2.18 7.485 2.29-.972 3.41-1.207 4.767-1 2.064.317 3.157.937 4.582 2.602 1.856 2.168 2.55 4.727 2.55 9.405 0 2.997.1 3.855.418 3.591.23-.19.526-.852.658-1.47.599-2.8 7.6-24.388 8-24.664.559-.386 4.652-.095 6.146.437.611.218 1.192.707 1.292 1.086.099.38-.266 2.077-.81 3.77-2.959 9.194-5.283 17.795-5.292 19.584-.007 1.245.856 1.6 1.804.741 1.016-.92 2.934-4.283 4.049-7.102 2.418-6.112 6.674-9.217 12.104-8.828 5.023.36 8.062 4.004 7.727 9.269-.19 2.988-1.692 5.938-3.764 7.394-1.333.938-1.824 1.072-3.903 1.072-2.062 0-2.551-.131-3.674-.988-1.448-1.104-1.619-.839-.953 1.484.891 3.105 3.31 4.984 6.468 5.021 2.44.03 3.758-.663 5.528-2.902 1.851-2.342 2.86-5.617 2.868-9.313.005-2.078.154-2.983.568-3.44.735-.812 2.691-.791 4.538.048 2.715 1.233 3.868 3.625 3.593 7.46-.44 6.157-5.21 11.434-11.957 13.23-2.197.585-6.502.653-8.733.139-3.701-.853-8.027-3.869-9.622-6.707-.429-.762-.873-1.386-.987-1.386-.114 0-.521.595-.905 1.323-.886 1.68-3.557 4.584-4.814 5.234-1.256.65-4.642.64-5.913-.018-1.46-.755-2.813-2.523-3.288-4.297-.316-1.183-.545-1.499-.957-1.323-.298.126-.905.309-1.35.405-.443.096-1.032.61-1.308 1.143-.728 1.41-3.878 4.122-5.349 4.607-1.968.65-6.678.269-8.538-.69-1.978-1.02-4.234-3.352-5.283-5.458l-.825-1.657-1.34 1.21c-.738.667-1.829 1.319-2.425 1.45-.698.153-1.343.655-1.806 1.405-2.588 4.187-7.224 5.948-12.12 4.602zm4.303-7.607l1.192-.726-.885-.948c-1.49-1.599-2.822-4.005-3.643-6.585l-.783-2.463-.46 1.58c-.255.87-.465 2.79-.468 4.266-.005 2.284.124 2.876.867 3.96 1.237 1.807 2.328 2.046 4.18.916zm25.885-.467c.84-.638.814-.717-.781-2.36-1.482-1.527-3.524-5.23-3.566-6.466-.024-.724-.03-.725-.328-.032-.42.977-.425 5.044-.008 6.497.708 2.469 3.011 3.63 4.683 2.36zm-21.822-5.712c.118-.307.213-1.854.213-3.44-.002-3.374-.784-5.174-2.25-5.174-1.021 0-1.277.568-1.277 2.835 0 1.815.348 2.86 1.668 5.014.878 1.434 1.312 1.636 1.646.765zm25.254-3.146c.006-3.573-.937-5.841-2.121-5.106-.752.466-.636 4.396.176 5.988 1.42 2.784 1.94 2.549 1.945-.882zm32.367.833c1.606-.993 3.27-3.329 3.27-4.59 0-2.384-3.083-.364-4.624 3.029-1.13 2.486-.786 2.883 1.354 1.56z"
        ></path>
        <g transform="matrix(.33724 0 0 .33724 4.406 61.068)">
          <path
            fill="#000"
            strokeWidth="0.402"
            d="M221.219 256.399c-5.865-1.663-8.75-3.598-12.246-8.216-1.562-2.064-2.84-4.058-2.84-4.432 0-.9 1.119-2.468 1.762-2.468.281 0 .916-.432 1.41-.959.706-.75.874-1.338.775-2.715-.118-1.64-.246-1.816-1.936-2.64-4.653-2.27-11.623-3.192-28.31-3.747-17.327-.577-22.123-1.366-28.46-4.68-3.43-1.796-6.144-4.1-8.816-7.487-1.178-1.493-2.337-2.715-2.575-2.714-.238 0-.976.332-1.64.735-1.96 1.191-5.036 2.087-8.046 2.343l-2.816.24-.038 1.722c-.079 3.61-3.84 9.56-7.738 12.241-3.701 2.546-10.049 3.53-14.413 2.233-3.094-.918-5.044-2.603-8.733-7.542-3.75-5.022-4.38-6.112-5.07-8.755-.259-.996-.652-2.508-.872-3.36-.221-.852-.468-1.483-.548-1.403-.08.08-.364 2.135-.63 4.567-.619 5.652-.765 5.828-4.83 5.828-3.608 0-7.307-1.006-9.637-2.62-1.586-1.1-7.606-8.459-8.68-10.611-.327-.657-.79-2.299-1.027-3.65-.347-1.969-.563-2.418-1.092-2.27-4.583 1.283-10.678-.18-14.23-3.418-.825-.752-3.113-3.51-5.083-6.126-4.465-5.93-5.083-7.603-5.078-13.748.004-3.771.144-4.735.946-6.517l.942-2.092-4.923-4.747-4.924-4.748-3.79-.478c-5.383-.68-6.739-1.456-10.199-5.836-3.729-4.72-4.208-5.846-3.589-8.427.57-2.373 2.714-4.416 5.435-5.178 1.944-.544 2.137-.818 1.15-1.637-1.09-.905-8.762-10.89-10.33-13.445-2.434-3.964-3.618-7.837-3.821-12.495-.362-8.29 2.512-13.926 8.631-16.93 2.11-1.037 2.738-1.149 6.364-1.136 3.212.012 4.484.198 6.307.923 2.905 1.157 6.926 4.257 8.924 6.88.853 1.122 1.71 2.04 1.903 2.04.193 0 .74-.766 1.218-1.7 1.302-2.553 3.674-5.61 5.814-7.494 5.9-5.193 13.467-5.937 19.621-1.93 1.33.865 3.136 2.843 5.694 6.232 3.873 5.131 5.052 7.668 5.662 12.182l.25 1.86 2.049.242c1.127.134 2.972.71 4.1 1.281 1.713.866 2.239.968 3.17.614 2.473-.94 8.14-.17 10.693 1.452.639.406 2.378 2.327 3.864 4.27 2.163 2.827 2.743 3.892 2.905 5.33.112.99.315 1.79.452 1.779.137-.011.777-1.132 1.421-2.49 1.989-4.191 5.74-7.197 10.469-8.387 1.484-.374 1.826-.612 1.617-1.125-1.348-3.31-1.792-5.319-1.792-8.114 0-9.35 5.857-15.577 16.84-17.905 3.228-.684 11.14-.751 14.924-.126l2.752.454 1.573-1.264c2.024-1.626 5.26-2.353 7.603-1.709 2.166.596 3.433 1.818 7.22 6.963 2.024 2.748 2.292 4.373.957 5.794l-.834.888 3.697 4.77c2.034 2.624 4.258 5.902 4.944 7.285 1.288 2.6 1.81 2.963 2.706 1.882 1.28-1.542 3.73-2.353 7.62-2.524 8.424-.37 8.927-.33 10.976.872 1.046.612 2.76 2.18 3.81 3.482 1.05 1.302 2.01 2.38 2.134 2.395.124.017.642-1.375 1.152-3.09 1.886-6.337 6.05-17.563 6.792-18.304.421-.421 1.494-.863 2.385-.982 1.786-.24 7.692.823 9.357 1.683.583.302 2.382 2.277 3.998 4.39 3.277 4.284 3.258 4.185 1.607 8.527l-.934 2.455 1.465 1.568a74.436 74.436 0 012.46 2.776c.547.663 1.076 1.116 1.176 1.005.1-.11 1.214-3.55 2.476-7.644 1.263-4.093 2.483-8.045 2.711-8.78.686-2.213 2.373-2.984 5.965-2.728 3.503.25 6.772 1.14 7.896 2.15 1.459 1.312 5.718 7.137 5.976 8.171.25 1.008.318 1.025 3.953 1.006 5.34-.028 7.82 1.162 11.342 5.441l2.012 2.445 2.614.09c3.923.133 6.226 1.546 9.565 5.866 4.449 5.756 5.014 6.857 5.223 10.177.556 8.842-5.367 16.575-15.19 19.83-3.01.999-9.374 1.013-12.672.03-3.094-.923-6.354-2.778-8.66-4.93l-1.822-1.697-1.945 2.206c-1.07 1.213-1.88 2.254-1.8 2.314.08.059.78.53 1.554 1.047.774.517 2.015 1.499 2.758 2.183 2.01 1.852 8.646 10.594 9.849 12.975 2.457 4.865 3.567 12.258 2.697 17.958-1.201 7.859-4.779 14.501-10.766 19.988-4.756 4.357-11.019 7.093-17.247 7.532-1.861.131-3.383.3-3.383.374 0 .074 1.159 1.637 2.576 3.472 4.593 5.951 6.024 9.628 5.985 15.383-.053 7.627-3.826 13.555-10.573 16.61-2.772 1.256-9.074 1.625-12.27.719zm4.597-8.868c4.365-1.161 8.031-4.616 9.777-9.212 3.264-8.588-1.48-19.06-10.815-23.882-4.652-2.402-8.833-3.344-16.03-3.612-6.808-.252-10.837.076-26.07 2.123-5.797.779-12.713 1.521-15.369 1.65-15.785.764-23.227-6.326-20.543-19.572.617-3.045 4.9-16.45 7.313-22.888.528-1.409.96-2.816.96-3.127 0-.712-1.515-1.307-4.689-1.843-3.8-.642-4.319-.378-5.507 2.804-3.763 10.078-7.48 20.75-7.87 22.595-.853 4.04-5.842 9.538-9.353 10.309-2.915.64-5.931-1.304-6.576-4.237-.366-1.67-.148-1.8 1.218-.725 1.649 1.297 5.53 1.5 7.666.401 4.254-2.187 6.483-7.48 5.394-12.805-1.224-5.989-8.542-8.806-14.705-5.662-5.572 2.843-9.197 9.397-9.171 16.577.013 3.555.607 5.65 2.297 8.112 4.834 7.038 15.037 7.783 21.268 1.552l1.787-1.787.665 2.096c2.3 7.255 9.449 12.708 19.02 14.507 3.99.75 7.577.995 21.689 1.48 15.139.521 20.75 1.338 26.189 3.811 5.015 2.281 7.92 5.89 8.468 10.526.198 1.673.049 2.456-.853 4.465-1.329 2.961-1.139 3.794 1.114 4.881 4.087 1.972 8.784 2.512 12.726 1.463zm-104.57-54.368c0-.135.573-1.321 1.273-2.636 1.857-3.483 4.395-5.379 5.02-3.75.472 1.229-1.154 3.79-3.633 5.726-1.073.837-2.66 1.23-2.66.66zm-12.356 33.843c2.321-.605 4.931-2.006 6.66-3.575 1.429-1.298 3.684-5.379 3.684-6.668 0-1.286-.574-1.63-2.713-1.63-3.484 0-6.375-3.286-7.366-8.372-1.187-6.087.431-20.92 3.76-34.474 1.795-7.306 2-8.774 1.485-10.685-.85-3.158-3.248-4.014-6.54-2.334-3.783 1.93-16.169 16.375-21.146 24.66-.922 1.535-1.676 2.606-1.676 2.38 0-.226.627-2.392 1.394-4.813 3.033-9.58 6.172-15.655 8.921-17.266 2.11-1.237 2.96-2.397 2.96-4.038 0-2.272-2.047-3.297-5.069-2.536-1.424.359-2.503 1.044-4.14 2.63-2.145 2.077-2.287 2.145-4.486 2.145-1.25 0-4.181.117-6.516.26l-4.245.26-.237 1.481c-.13.815-.762 2.523-1.404 3.796l-1.167 2.314 1.06-.271c2.294-.587 6.408-1.36 8.687-1.632l2.397-.287-.708 1.08c-6.81 10.396-14.755 30.47-14.742 37.253.004 2.377 1.549 5.644 3.299 6.98 1.812 1.381 4.37 2.262 7.415 2.55 2.927.277 3.116.074 3.496-3.743.497-4.995 3.906-12.588 11.447-25.5 3.24-5.546 9.417-14.828 11.112-16.696l1.46-1.609-1.566 3.219c-8.09 16.624-12.363 33.716-10.953 43.81 1.3 9.301 7.03 13.5 15.437 11.31zm129.628-16.847c1.908-.512 7.21-2.989 8.577-4.007 1.95-1.453 6.899-6.879 8.06-8.836 3.326-5.608 4.665-10.892 4.354-17.184-.462-9.327-4.525-16.41-11.327-19.745-2.63-1.289-3.065-1.376-6.84-1.376-3.602 0-4.25.116-6.09 1.087-3.277 1.728-5.854 5.417-5.935 8.497-.05 1.9.946 2.856 3.377 3.245 8.05 1.287 14.021 11.431 12.588 21.382-.748 5.192-3.911 10.318-7.22 11.7-1.618.676-5.112.726-6.302.089-1.123-.601-2.37-2.168-2.968-3.73-.773-2.021-.622-7.877.314-12.197 1.3-6.006.669-8.622-2.485-10.282-2.475-1.302-7.051.067-9.152 2.738-1.017 1.292-1.364 1.282-.867-.026.216-.568.392-1.21.392-1.429 0-.694-2.583-1.508-5.677-1.788-3.432-.311-3.636-.188-4.367 2.64-.486 1.88-1.402 4.851-3.121 10.126-.609 1.866-1.43 3.493-2.081 4.116l-1.075 1.03.163-4.048c.271-6.754-1.118-10.838-4.587-13.485-1.648-1.258-1.349-1.23-9.896-.905-3.562.136-4.034.25-5.63 1.372-.957.673-2.424 2.202-3.26 3.399-1.522 2.179-3.515 7.583-3.515 9.532 0 .57-.396 1.678-.88 2.46-1.024 1.658-1.067 1.598-2.097-2.883-.35-1.52-1.282-4.268-2.072-6.108-1.344-3.128-1.405-3.451-.946-4.983.606-2.023.058-3.506-1.434-3.88-2.421-.608-4.125.826-4.525 3.81-.157 1.168-.851 2.377-2.598 4.52-2.32 2.847-2.429 2.923-4.074 2.838-5.439-.28-9.034 6.553-6.858 13.031 1.907 5.679 6.341 8.854 12.27 8.788 2.498-.028 3.506-.244 5.343-1.142 2.601-1.273 5.128-3.617 6.865-6.366.664-1.05 1.297-1.91 1.408-1.91.11 0 .54.826.955 1.834 1.121 2.727 4.036 5.51 6.905 6.59 1.992.751 2.989.877 5.88.744 2.994-.138 3.722-.32 5.199-1.297 1.705-1.129 3.152-2.616 4.486-4.612.614-.92 2.622-1.888 3.042-1.469.086.087.329.922.539 1.858.803 3.575 3.179 5.2 7.6 5.2h2.406v-2.028c0-7.802 5.677-22.068 8.603-21.618.958.147.976-.051-.436 4.87-.85 2.964-.992 4.165-.855 7.282.14 3.205.347 4.106 1.468 6.384 2.35 4.773 5.934 6.688 12.542 6.702 2.102.005 4.727-.234 5.834-.53zM184.553 200.1c-.96-.825-1.13-1.314-1.28-3.68-.152-2.39.417-6.554 1.037-7.593.117-.197.6.98 1.075 2.615.797 2.752 3.233 7.196 3.944 7.196.656 0 .265 1.192-.586 1.788-1.283.899-2.914.772-4.19-.326zm-25.638-1.893c-2.158-1.698-.98-4.799 1.822-4.799 1.513 0 1.738-.596.798-2.12l-.802-1.3 1.138-1.27 1.137-1.271.441 1.75c.986 3.914.293 7.85-1.618 9.187-1.218.854-1.637.828-2.916-.177zm33.65-4.48c-1.913-2.387-3.122-7.706-2.159-9.505.639-1.193 1.884-1.094 2.742.218.56.855.714 1.935.714 5.009 0 3.932-.432 5.356-1.296 4.278zm44.524 8.744c1.72-.89 3.926-3.686 4.734-6.002.89-2.548 1-10.11.18-12.424-.73-2.065-2.93-3.173-6.804-3.426-1.604-.105-2.917-.068-2.917.081 0 .15.457.762 1.016 1.36 2.488 2.668 4.159 5.926 4.196 8.186.01.584-.326 2.756-.746 4.828-.968 4.775-1.397 7.99-1.064 7.99.142 0 .775-.267 1.405-.594zm-177.793-5.437c3.73-1.036 8.443-5.2 8.443-7.459 0-.615-.494-1.33-1.388-2.012-2.078-1.585-3.169-4.143-2.964-6.95.091-1.26.475-2.91.853-3.664.79-1.582.68-1.887-.465-1.275-.447.24-2.182.626-3.856.86-3.698.513-7.884.018-12.035-1.426-3.272-1.138-3.293-1.129-4.58 2.007-1.606 3.913-1.506 8.856.262 12.873.647 1.471 2.876 4.115 4.52 5.362 2.263 1.717 7.993 2.578 11.21 1.684zm145.231-17.227c.644-2.12 1.093-2.893 1.985-3.42 1.602-.946 6.093-.897 9.3.101 2.487.774 2.527.774 4.044 0 1.874-.956 5.562-1.038 8-.178.941.332 1.79.604 1.887.604.097 0-.583-1.083-1.51-2.406l-1.688-2.405.187-3.126c.204-3.412 1.04-5.505 3.163-7.924 1.03-1.173 1.158-1.533.788-2.224-.482-.9-.852-1.019-1.438-.458-.675.645-4.694 1.646-6.59 1.64-4.33-.01-8.43-1.858-11.715-5.277-2.273-2.368-2.279-2.37-3.577-1.825-.714.3-1.964 1.426-2.777 2.501-.832 1.101-2.6 2.657-4.047 3.562-2.386 1.492-2.82 1.62-6.071 1.774-6.183.296-10.909-1.92-14.687-6.889-1.106-1.454-2.138-2.655-2.292-2.668-.154-.013-.912.927-1.685 2.09-4.4 6.617-10.642 10.18-18.753 10.707l-4.225.275 2.04 1.067c1.555.812 2.742 1.973 4.989 4.878l2.948 3.811 2.283-.052c2.918-.067 3.695.448 6.868 4.55l2.507 3.24 2.16-2.386c3-3.316 4.636-4.02 10.037-4.317 9.103-.502 10.697.021 14.337 4.713 1.166 1.503 2.25 2.743 2.41 2.756.16.013.664-1.207 1.122-2.714zm-64.233-5.122c1.424-3.974 2.81-7.704 3.08-8.288.583-1.265 1.906-1.938 3.94-2.003.819-.026 2.018-.162 2.665-.301 1.158-.25 1.142-.27-.994-1.26-1.194-.553-2.998-1.572-4.01-2.263l-1.839-1.257-2.585 1.945c-3.869 2.91-6.556 3.793-11.46 3.763-3.145-.018-4.502-.214-6.212-.895-1.204-.48-2.247-.814-2.319-.742-.07.07.258 1.005.732 2.076.744 1.682.828 2.413.619 5.392-.133 1.896-.361 3.957-.506 4.58-.264 1.134-.262 1.135 1.297.805 4.933-1.042 9.618.351 12.937 3.847 1.042 1.098 1.933 1.959 1.98 1.912.046-.046 1.25-3.336 2.675-7.31zm-77.668-2.602c4.213-1.577 6.668-4.625 7.545-9.37.47-2.544-.03-6.387-1.107-8.513-2.642-5.208-8.699-8.192-13.168-6.485-2.15.821-4.652 3.442-4.652 4.873 0 1.03.147 1.14 2.085 1.562.594.13 1.195.598 1.335 1.04.982 3.096-4.001 4.622-9.225 2.825-2.433-.837-7.812-3.578-9.455-4.817l-.97-.731 1.524-1.757c.838-.966 2.109-2.843 2.824-4.17l1.3-2.415 3.099-.31c1.853-.186 4.513-.844 6.62-1.637 10.108-3.803 16.45-11.592 18.396-22.593 2.327-13.147-2.266-21.633-11.718-21.652-5.12-.01-9.82 2.951-13.444 8.47-2.318 3.531-3.622 6.959-6.672 17.54-1.222 4.241-2.318 8.026-2.435 8.412-.192.632-.323.644-1.324.126-1.576-.815-3.751-3.341-4.883-5.672-.766-1.577-.998-2.795-1.11-5.816-.123-3.376-.03-4.03.793-5.609 1.172-2.246 2.486-3.21 5.217-3.822 2.993-.672 3.053-1.544.302-4.452-6.323-6.687-15.522-7.458-20.67-1.733-2.564 2.852-3.534 5.673-3.57 10.386-.035 4.756.936 8.138 3.64 12.665 3.44 5.76 10.785 12.009 15.954 13.571.853.258 1.643.709 1.755 1.002.113.293-.402 1.535-1.144 2.76-1.223 2.017-1.443 2.195-2.359 1.904-.555-.177-2.49-.321-4.3-.321-3.779 0-5.285.755-5.92 2.966-.846 2.952 1.516 4.528 7.2 4.8l3.62.175 4.425 4.328c2.434 2.381 5.06 4.87 5.834 5.532 1.752 1.498 6.52 4.572 8.604 5.548 4.854 2.273 12.032 2.895 16.054 1.39zm-17.819-38.34c0-1.19 2.626-8.407 4.787-13.152 4.314-9.478 8.847-14.956 11.524-13.93 1.956.752 2.191 5.838.513 11.113-2.378 7.48-6.985 13.019-12.655 15.218-3.031 1.176-4.169 1.381-4.169.75zm61.659 23.185c.716-.38 2.263-.888 3.436-1.13l2.135-.44-2.336-3.092c-1.284-1.7-2.468-3.096-2.631-3.102-.163-.006-.863 1.122-1.555 2.505-.693 1.383-1.872 3.374-2.621 4.426-1.462 2.052-1.628 2.69-.894 3.423.355.355.791.183 1.815-.716.742-.651 1.935-1.495 2.651-1.874zm129.716-.409c.05-.178-.34-.855-.87-1.503l-.963-1.179-1.235 1.322c-1.32 1.414-1.496 2.02-.79 2.727.324.324.893.243 2.105-.299.913-.409 1.701-.89 1.753-1.068zm-106.83-1c2.002-.682 5.338-2.904 7.122-4.743.866-.892 1.691-1.622 1.835-1.622.143 0 .791.605 1.44 1.345 1.832 2.085 5.501 3.838 9.133 4.362 2.616.378 3.672.344 6.33-.202 4.453-.914 7.188-2.395 10.524-5.698 3.303-3.272 5.462-7.21 6.4-11.675.751-3.582.77-10.134.038-13.945-1.552-8.082-6.125-15.832-11.919-20.2-1.43-1.08-2.66-2.116-2.731-2.303-.072-.188.776-1.248 1.884-2.356l2.014-2.014-1.033-.813c-1.118-.88-3.408-1.071-5.101-.428-.556.212-1.705 1.011-2.553 1.777l-1.541 1.393-2.604-.642c-3.766-.929-12.583-.885-16.281.08-6.359 1.661-10.36 4.525-12.536 8.97-.983 2.011-1.123 2.754-1.11 5.93.012 3.106.173 3.96 1.106 5.901 1.24 2.58 3.946 5.275 6.429 6.401 2.364 1.074 6.323 1.045 8.61-.062 3.34-1.617 4.765-4.825 2.736-6.154-2.104-1.38-3.062-4.774-2.35-8.333.396-1.978 3.855-5.293 6.38-6.115 2.523-.822 6.224-1.176 6.224-.596 0 .233-.808 2.256-1.794 4.495-.987 2.24-2.891 6.753-4.232 10.03-5.7 13.93-8.86 18.32-13.455 18.694-1.807.147-2.159.042-3.049-.91-.764-.82-1.005-1.512-1.005-2.89 0-1.613.167-1.949 1.508-3.025 1.816-1.456 1.904-2.405.329-3.527-2.886-2.054-7.434-2.61-11.12-1.356-3.083 1.049-6.232 4.427-7.402 7.94-3.104 9.328 3.737 20.662 13.738 22.76 2.033.427 6.11.189 8.037-.468zm12.64-11.55c-.122-.197.67-2.234 1.76-4.526 2.234-4.703 4.273-10.447 7.047-19.858 2.268-7.695 3.802-12.357 4.21-12.787.445-.47 3.841 3.343 4.98 5.592 3.115 6.152 3.044 14.39-.18 20.814-2.429 4.836-6.978 8.92-11.489 10.314-2.723.84-5.945 1.07-6.329.45zm-65.604 8.417c2.086-1.003 2.615-1.46 4.151-3.59l1.274-1.766.574 1.364c.688 1.637 2.431 3.366 3.984 3.953 1.605.607 4.141.53 5.485-.165 1.927-.996 4.773-4.642 6.716-8.602 1.697-3.461 1.825-3.93 1.583-5.833-.29-2.293-.96-4.697-1.458-5.238-.178-.194-1.058 1.109-1.957 2.896-2.67 5.31-5.267 7.677-5.264 4.798 0-1.648 1.563-7.51 3.183-11.945.683-1.868 1.241-3.626 1.241-3.907 0-.754-3.8-1.749-6.68-1.749h-2.51l-.482 1.457-.48 1.457-1.462-1.656c-4.418-5.01-10.453-3.243-14.95 4.374-2.183 3.7-3.245 7.203-3.505 11.568-.385 6.444 1.478 10.879 5.299 12.614 2.079.944 3.246.937 5.258-.03zm-.613-10.298c-.547-1.44-.493-2.507.256-5.03 1.555-5.243 4.072-8.421 6.67-8.421.842 0 1.532.143 1.532.318 0 .175-.54 1.987-1.202 4.027-1.228 3.79-2.715 7.058-4.107 9.031-1.03 1.462-2.608 1.5-3.15.075zm116.626 9.22c2.146-.693 5.23-3.324 6.283-5.36.362-.701 1.118-1.244 2.17-1.56.888-.266 2.148-1.016 2.8-1.668l1.184-1.184.517 1.248c.9 2.173 3.53 5.111 5.669 6.333 3.653 2.086 8.66 2.376 11.904.69 1.318-.685 3.952-3.26 4.798-4.689.787-1.33 3.317-2.2 3.62-1.244 1.46 4.612 3.76 6.602 7.632 6.602 1.517 0 2.567-.281 3.832-1.027 1.737-1.024 4.237-3.927 5.191-6.028.64-1.409.961-1.393 1.57.077.63 1.519 4.606 5.317 6.666 6.366 5.706 2.907 13.651 2.816 19.23-.22 6.031-3.281 9.37-8.865 9.052-15.141-.124-2.453-.33-3.162-1.276-4.403-1.564-2.051-2.68-2.687-5.167-2.942-3.055-.314-3.407.203-3.641 5.346-.16 3.515-.361 4.445-1.48 6.839-2.116 4.53-4.222 6.19-7.846 6.19-3.58 0-6.284-2-7.291-5.392-.891-3-.79-3.247.832-2.01 3.039 2.318 7.82 1.577 10.438-1.617 1.85-2.256 2.622-4.574 2.611-7.827-.02-6.04-3.727-9.678-9.884-9.697-2.388-.006-3.254.192-5.319 1.224-2.904 1.451-5.381 4.076-6.81 7.216-2.706 5.949-3.33 7.165-4.49 8.75-1.292 1.765-2.303 2.17-2.717 1.09-.492-1.283 1.323-8.36 5.919-23.075.945-3.028 1.195-4.36.904-4.827-.936-1.503-8.214-2.276-8.914-.947-.404.765-7.34 22.438-8.512 26.592-.396 1.405-.874 2.707-1.062 2.895-.188.187-.347-1.777-.352-4.365-.013-5.923-.72-8.233-3.36-10.957-2.739-2.827-6.832-3.58-9.605-1.765-.498.326-.905.441-.905.257 0-.4 1.857-5.815 3.557-10.376 1.03-2.763 1.14-3.396.73-4.224-.564-1.137-2.973-1.898-6.169-1.947l-2.083-.033-.88 2.313c-1.844 4.847-6.063 17.933-6.808 21.117-.428 1.828-.9 4.442-1.048 5.81-.212 1.948-.499 2.704-1.328 3.498l-1.057 1.013-.048-4.504c-.052-5.01-.794-7.673-2.977-10.687-1.78-2.457-3.963-3.423-7.002-3.096-1.345.145-3.74.242-5.323.217-2.164-.035-3.274.155-4.475.768-2.98 1.52-5.313 5.113-6.584 10.14-1.779 7.035.197 14.417 4.798 17.926 3.617 2.758 8.37 3.63 12.506 2.295zm-5.58-8.1c-2.427-.766-3.691-4.611-2.852-8.676.74-3.583 1.043-3.897 1.606-1.662.65 2.586 1.831 4.852 3.693 7.091 1.28 1.54 1.458 1.952 1.002 2.33-.758.629-2.714 1.149-3.449.917zm28.378-1.445c-.525-.525-1.15-1.656-1.388-2.514-.47-1.692-.518-5.412-.09-6.936.23-.823.335-.694.776.955.578 2.163 2.88 5.841 4.408 7.043.992.78 1.001.83.299 1.606-.99 1.094-2.828 1.024-4.005-.154zm-22.71-6.834c-1.775-2.872-2.62-7.18-1.693-8.64.618-.976 2.214-.361 2.965 1.14 1.015 2.033.927 8.851-.114 8.851-.178 0-.699-.608-1.158-1.351zm28.599-1.565c-1.585-3.362-1.453-7.388.232-7.065.936.18 1.658 2.416 1.686 5.221.04 3.921-.634 4.568-1.918 1.844zm36.54.085c0-.842 2.04-4.582 3.12-5.718 1.275-1.34 2.914-1.5 2.914-.285 0 1.333-1.456 3.795-2.89 4.887-1.632 1.243-3.145 1.78-3.145 1.116z"
          ></path>
        </g>
      </g>
    </svg>