<?xml version="1.0" encoding="UTF-8" standalone="no"?>
<!-- Created with Inkscape (http://www.inkscape.org/) -->

<svg
   width="117.84931mm"
   height="68.745178mm"
   viewBox="0 0 117.84931 68.745178"
   version="1.1"
   id="svg3691"
   xmlns="http://www.w3.org/2000/svg"
   xmlns:svg="http://www.w3.org/2000/svg">
  <defs
     id="defs3688" />
  <g
     id="layer1"
     transform="translate(-86.222752,-71.727013)">
    <path
       fill="#000000"
       strokeWidth="0.353"
       d="m 173.7875,140.06665 c -0.68496,-0.20279 -1.81262,-0.69283 -2.50593,-1.08961 -1.03345,-0.59121 -1.42698,-0.94204 -2.19221,-1.95462 -0.51278,-0.67891 -1.02232,-1.32952 -1.13231,-1.44647 -0.11044,-0.11694 -0.28307,-0.48911 -0.3847,-0.82695 -0.24966,-0.83391 0.1123,-1.70403 0.90399,-2.17087 0.38795,-0.22878 0.581,-0.46406 0.581,-0.70537 0,-0.29932 -0.17959,-0.42415 -1.02279,-0.70908 -2.28317,-0.77173 -4.19416,-0.98845 -10.47753,-1.18938 -5.28331,-0.16892 -7.94098,-0.44457 -9.64593,-1.00098 -2.39733,-0.7824 -4.67772,-2.30498 -6.03602,-4.03175 -0.6998,-0.8896 -0.80375,-0.95921 -1.06548,-0.71372 -0.25059,0.23481 -2.05532,0.80885 -2.87949,0.91605 l -0.75966,0.0988 -0.37032,1.15087 c -1.12813,3.50968 -4.12456,5.71024 -7.77439,5.71024 -1.42605,0 -2.57645,-0.32577 -3.61919,-1.02464 -0.75967,-0.50954 -2.57553,-2.59781 -3.45075,-3.96863 -0.23017,-0.36012 -0.44178,-0.68217 -0.47055,-0.71558 -0.0288,-0.0329 -0.3035,0.2065 -0.61117,0.53227 l -0.55873,0.5926 h -1.47802 c -2.91894,0 -4.47493,-0.80839 -6.45971,-3.35607 -1.60611,-2.06181 -2.05346,-2.81127 -2.19129,-3.67303 -0.10951,-0.68542 -0.10998,-0.68634 -0.70908,-0.58471 -1.4112,0.23806 -3.809,-0.51418 -5.1557,-1.61771 -0.77962,-0.63901 -3.41547,-4.05727 -3.90088,-5.05825 -0.835304,-1.72351 -1.033457,-4.33431 -0.467305,-6.15482 l 0.309065,-0.99262 -1.628849,-1.60054 -1.628385,-1.60054 -1.340666,-0.19258 c -2.702217,-0.38842 -3.095276,-0.62741 -4.909747,-2.985298 -1.595899,-2.07434 -1.768065,-2.58295 -1.357373,-3.99648 0.247807,-0.85201 0.996799,-1.73743 1.990814,-2.35277 0.218107,-0.13551 0.258945,-0.23714 0.131328,-0.32763 -0.101628,-0.0724 -0.937399,-1.12581 -1.856236,-2.34118 -2.601052,-3.43729 -3.435431,-5.48518 -3.440535,-8.43799 -0.0042,-2.52912 0.697945,-4.41413 2.182006,-5.85968 2.807558,-2.7347 7.429124,-2.49478 10.589368,0.54991 0.558263,0.53785 1.031135,0.97824 1.051095,0.97824 0.0199,0 0.31092,-0.39909 0.64643,-0.88635 2.25208,-3.27023 5.73299,-4.70139 8.98883,-3.69577 1.53743,0.47473 2.42146,1.16571 3.97699,3.10873 1.58105,1.97458 2.25811,3.24563 2.5514,4.79142 l 0.2065,1.09053 0.79493,0.17031 c 0.43715,0.0937 0.95504,0.25663 1.15087,0.36151 0.20187,0.10859 1.16804,0.20232 2.23816,0.21717 2.3718,0.0325 3.49668,0.41163 4.54314,1.52908 0.38238,0.40884 0.69609,0.79169 0.69609,0.85062 0,0.0585 0.15453,0.284 0.3434,0.50026 0.1898,0.21625 0.44178,0.52995 0.56012,0.69748 0.20094,0.28307 0.28029,0.23852 1.17036,-0.665 0.87243,-0.88635 1.6372,-1.37315 2.8948,-1.84324 0.35361,-0.1318 0.43807,-0.24317 0.34897,-0.45849 -0.5462,-1.32257 -0.51093,-4.14545 0.0705,-5.64621 0.88635,-2.28735 2.96209,-3.96679 6.07129,-4.91207 1.31004,-0.39863 5.84807,-0.59121 7.18224,-0.30489 0.80654,0.1731 0.87475,0.1601 1.48963,-0.28539 1.28777,-0.93276 2.86417,-1.06548 4.31621,-0.3629 0.56894,0.27565 1.06409,0.77498 2.14303,2.16344 1.27291,1.63721 1.40331,1.87202 1.40331,2.52124 0,0.39352 -0.0817,0.89471 -0.18097,1.11374 -0.16243,0.35594 -0.09,0.51511 0.69376,1.52212 0.48123,0.61766 0.96246,1.21583 1.0692,1.32721 0.10673,0.1123 0.426,0.60977 0.71001,1.10539 0.28307,0.49561 0.56011,0.9012 0.61534,0.9012 0.0548,0 0.43482,-0.16242 0.84412,-0.36011 0.74714,-0.36196 2.11843,-0.50118 5.17101,-0.52624 1.31979,-0.0107 2.21496,0.36057 3.22986,1.33974 0.33597,0.32437 0.63715,0.55733 0.66917,0.51835 0.0325,-0.0394 0.48587,-1.32396 1.00887,-2.85443 0.52299,-1.53093 1.11513,-3.15839 1.31607,-3.61688 0.65061,-1.48499 1.77827,-1.91563 4.02432,-1.53789 2.06274,0.34665 2.70871,0.73136 4.02014,2.39362 0.63298,0.80282 1.24275,1.63117 1.35505,1.84139 0.25013,0.46684 0.16196,1.317 -0.24362,2.34721 l -0.3035,0.77219 0.39074,0.4158 0.39073,0.41626 0.55919,-1.76157 a 133.7762,133.7762 0 0 0 0.88729,-2.90733 c 0.38285,-1.33603 0.73089,-1.77224 1.71423,-2.14767 1.17082,-0.44735 3.79693,-0.0854 5.1441,0.70909 0.27286,0.16103 0.91002,0.84505 1.41538,1.52072 0.50536,0.67521 0.96849,1.26456 1.02882,1.30957 0.0608,0.045 0.19769,0.24735 0.30442,0.45014 0.16706,0.31788 0.32484,0.36846 1.15319,0.36846 2.0233,0 4.06887,1.02882 5.14966,2.59131 0.40652,0.58704 0.55548,0.6831 1.06409,0.68449 0.88914,0.003 2.16716,0.38981 2.90687,0.87939 0.57543,0.38053 2.24233,2.30452 3.27951,3.7844 0.78379,1.11839 1.06316,3.09667 0.6868,4.86241 -0.65757,3.08971 -3.45724,5.898668 -6.75206,6.775268 -2.97694,0.79262 -6.33348,0.15778 -8.67558,-1.639518 -0.55873,-0.42925 -0.8483,-0.56012 -0.96942,-0.439 -0.12066,0.12112 0.0594,0.37682 0.60513,0.85712 0.67659,0.595848 2.16019,2.363908 3.55376,4.235928 0.68217,0.91605 1.42281,2.50128 1.81262,3.88 0.48772,1.72584 0.51974,4.96218 0.0668,6.76134 -1.12071,4.44801 -4.3965,8.25933 -8.42267,9.79954 -0.68867,0.26312 -1.58338,0.52903 -1.9885,0.58982 -1.4242,0.21579 -1.40146,0.16289 -0.56801,1.33092 2.78528,3.90274 2.60337,8.7503 -0.43946,11.72771 -2.1602,2.11379 -5.20675,2.79595 -8.34147,1.86783 z m 5.97197,-1.14251 c 2.16066,-1.06734 3.52407,-3.02938 3.89578,-5.60444 0.35361,-2.45023 -0.39538,-4.71252 -2.39455,-7.2319 -0.58889,-0.7425 -1.07105,-1.37593 -1.07105,-1.40796 0,-0.0316 0.64505,-0.10348 1.43256,-0.15917 2.94445,-0.20929 5.13249,-1.26595 7.50847,-3.62662 1.50031,-1.49009 1.73373,-1.80658 2.47808,-3.36211 1.17964,-2.46415 1.40935,-3.4294 1.42002,-5.97383 0.0107,-2.36439 -0.21578,-3.49251 -1.06733,-5.31859 -0.94668,-2.03165 -4.52829,-6.307488 -5.55572,-6.633728 -0.18702,-0.0594 -0.31788,-0.16705 -0.2905,-0.23991 0.0868,-0.22878 1.44276,-1.64138 1.56759,-1.63349 0.0659,0.005 0.4144,0.30164 0.77452,0.66082 0.3601,0.35871 1.17035,0.90863 1.80055,1.22186 3.52545,1.752758 7.68342,1.195418 10.45015,-1.40099 1.69195,-1.58754 2.56485,-3.46884 2.56485,-5.52602 0,-1.57548 -0.25616,-2.15787 -1.85577,-4.22201 -1.75183,-2.25996 -2.39455,-2.68829 -4.23129,-2.82009 l -1.10957,-0.0789 -0.66825,-0.88496 c -1.31793,-1.74626 -2.87716,-2.45998 -5.01926,-2.29803 -1.07987,0.0817 -1.19495,0.0617 -1.19495,-0.2079 0,-0.43853 -2.24605,-3.40944 -2.79039,-3.69112 -0.67103,-0.34712 -2.39919,-0.72765 -3.3157,-0.73043 -0.8548,-0.003 -1.6567,0.32716 -1.88965,0.77684 -0.0812,0.15684 -0.60746,1.79498 -1.16944,3.641 -0.56197,1.84557 -1.05433,3.39042 -1.09378,3.43265 -0.0399,0.0422 -0.26823,-0.17866 -0.50768,-0.49098 a 15.102343,15.102343 0 0 0 -0.99309,-1.13601 l -0.5578,-0.56801 0.37079,-0.98752 c 0.63761,-1.69753 0.62276,-1.82979 -0.35455,-3.11708 -0.47751,-0.62927 -1.10121,-1.37919 -1.3866,-1.66598 -0.66825,-0.67381 -2.05671,-1.08775 -3.70088,-1.10307 -1.07337,-0.0102 -1.31514,0.0394 -1.60703,0.33088 -0.34898,0.34804 -1.23672,2.65673 -2.46926,6.42165 -0.37403,1.14159 -0.70909,2.10869 -0.74482,2.14952 -0.0362,0.0404 -0.50118,-0.4093 -1.03392,-0.99958 -1.26967,-1.40703 -2.24791,-1.85949 -3.67535,-1.69892 -0.54666,0.0613 -1.49335,0.10116 -2.10451,0.0886 -1.32767,-0.0274 -2.11704,0.19769 -2.931,0.83531 -0.33226,0.25987 -0.63901,0.47334 -0.6817,0.47334 -0.0427,0 -0.33505,-0.46127 -0.64968,-1.02418 -0.3151,-0.5629 -1.23812,-1.90125 -2.05161,-2.97462 l -1.47942,-1.95044 0.41162,-0.48958 c 0.30721,-0.36475 0.38517,-0.59678 0.30581,-0.91235 -0.10766,-0.42832 -1.55134,-2.41635 -2.4558,-3.38206 -1.07105,-1.14344 -3.15049,-1.1634 -4.42712,-0.0427 l -0.57218,0.50258 -1.00794,-0.19816 c -0.55455,-0.10905 -1.93745,-0.19815 -3.073,-0.19815 -5.68798,0 -9.41205,2.40382 -9.97032,6.43604 -0.17309,1.2511 0.0227,2.84793 0.47381,3.86793 0.17866,0.40373 0.32484,0.75549 0.32484,0.78194 0,0.026 -0.37078,0.12669 -0.8237,0.22414 -1.80055,0.3861 -3.34402,1.6437 -4.18025,3.4062 -0.26451,0.5564 -0.53552,1.01536 -0.60328,1.01953 -0.0673,0.005 -0.12251,-0.2543 -0.12251,-0.57543 0,-0.73971 -0.14246,-1.00098 -1.43765,-2.634 -1.07291,-1.35227 -1.50263,-1.65066 -2.90037,-2.01309 -0.86037,-0.22274 -2.47158,-0.2181 -2.8948,0.008 -0.27148,0.14525 -0.48866,0.0965 -1.1388,-0.25755 -0.44179,-0.24044 -1.18892,-0.47712 -1.65994,-0.52584 l -0.85666,-0.0882 -0.28679,-1.46365 c -0.15778,-0.80467 -0.426,-1.73558 -0.59585,-2.06877 -0.61766,-1.21119 -3.15142,-4.31111 -3.92501,-4.80301 -1.80194,-1.14484 -4.15565,-1.27617 -6.13718,-0.34202 -1.36759,0.64458 -3.21547,2.4261 -4.02943,3.88511 -0.30164,0.54063 -0.56987,1.01026 -0.59678,1.04413 -0.0264,0.0334 -0.248736,-0.18748 -0.494223,-0.49144 -0.245488,-0.30395 -0.828346,-0.92394 -1.29519,-1.37825 -3.353291,-3.25863 -8.558643,-2.83076 -10.509084,0.86361 -0.699802,1.32535 -0.914661,2.47669 -0.821385,4.3965 0.0956,1.94719 0.499328,3.30549 1.457146,4.89768 0.805607,1.3402 3.332873,4.69721 4.058662,5.39144 0.276579,0.26451 0.50304,0.53227 0.50304,0.59446 0,0.0627 -0.346189,0.20094 -0.768946,0.30721 -1.717483,0.4325 -2.792245,2.33978 -2.073417,3.67906 0.540629,1.00701 2.492926,3.349578 3.016385,3.620588 0.608382,0.31463 2.455801,0.7244 3.283683,0.72857 0.482622,0.002 0.742495,0.14711 1.400531,0.78055 0.444104,0.4274 1.369439,1.29983 2.056248,1.93838 l 1.24878,1.16153 -0.39816,1.09704 c -0.31046,0.8548 -0.39816,1.42002 -0.39816,2.55975 0,2.24372 0.37913,3.19226 2.27899,5.69679 2.39594,3.15885 3.61131,3.87675 6.51632,3.84844 l 1.51051,-0.0148 0.0905,0.59446 c 0.22461,1.47479 0.4107,1.81447 2.31937,4.22759 1.71377,2.16669 3.02892,2.82704 5.63507,2.83122 1.64741,0.003 1.71609,-0.0807 1.94905,-2.36995 0.10024,-0.98659 0.20279,-1.81447 0.22832,-1.84 0.0251,-0.0251 0.20001,0.52532 0.38842,1.22373 0.48494,1.7973 0.72068,2.28967 1.75599,3.65911 2.44281,3.23402 3.19134,3.76119 5.50143,3.87907 2.18479,0.11137 3.78672,-0.44132 5.34689,-1.84464 1.26734,-1.13927 2.48364,-3.58254 2.2892,-4.59929 -0.071,-0.37078 -0.0288,-0.39816 0.61534,-0.39816 1.16015,0 2.40383,-0.30164 3.48416,-0.84598 0.59956,-0.30164 1.08311,-0.45525 1.15922,-0.368 0.0719,0.0826 0.47798,0.60096 0.90213,1.15133 1.9523,2.53562 4.78909,3.99183 8.69693,4.46518 0.81071,0.0979 3.60992,0.25198 6.22118,0.34154 5.36592,0.1847 6.30564,0.25245 8.26722,0.59678 1.72769,0.3035 2.6985,0.58333 3.57604,1.03068 0.60513,0.30906 0.68031,0.41162 0.68031,0.92812 0,0.7657 -0.20001,1.10631 -0.89099,1.51376 -0.64644,0.38145 -0.86872,0.96524 -0.57544,1.5133 0.10952,0.20418 0.67474,0.9787 1.25621,1.72119 0.94204,1.20192 1.20423,1.42373 2.39362,2.02562 1.93187,0.97731 2.67947,1.1504 4.72505,1.09425 1.64184,-0.045 1.82839,-0.0859 2.97462,-0.65293 z m -6.93675,-3.12961 c -1.36666,-0.34991 -2.09338,-0.70259 -2.39362,-1.16108 -0.26034,-0.39677 -0.25245,-0.45431 0.18284,-1.31422 0.38424,-0.76012 0.44085,-1.03392 0.36475,-1.77177 -0.32763,-3.1751 -2.90873,-4.96822 -8.14007,-5.65457 -0.76569,-0.1007 -4.04381,-0.29003 -7.28526,-0.4209 -6.33023,-0.25616 -7.35209,-0.36661 -9.24963,-1.00283 -1.62374,-0.54434 -2.57228,-1.07662 -3.6772,-2.06089 -1.11746,-0.99633 -1.78895,-1.94998 -2.26601,-3.21871 l -0.36289,-0.96571 -0.73507,0.7244 c -0.4042,0.39863 -1.14019,0.9244 -1.63534,1.1685 -0.78798,0.38841 -1.09518,0.4441 -2.45581,0.44457 -1.71098,0 -2.35278,-0.22739 -3.68788,-1.30958 -2.60894,-2.11472 -2.30498,-7.2732 0.58843,-9.97959 1.17407,-1.09843 2.08641,-1.47246 3.59089,-1.47246 2.39548,0 3.83406,1.37918 3.83545,3.67674 0.001,2.66463 -1.54764,4.57052 -3.72361,4.58027 -0.8418,0.004 -1.27013,-0.15732 -1.89475,-0.7128 l -0.39121,-0.34804 0.10859,0.70769 c 0.57265,3.73567 5.50003,1.80379 6.6328,-2.60059 0.27751,-1.07801 1.52444,-4.66937 2.9904,-8.61155 0.57775,-1.5532 0.70351,-1.62653 2.34257,-1.3648 1.58337,0.25291 1.94348,0.42276 1.82793,0.86315 -0.0529,0.20094 -0.79354,2.42796 -1.64555,4.9492 -1.98571,5.87266 -2.24466,7.36554 -1.63442,9.41993 1.07012,3.60435 4.74176,4.70788 12.26091,3.68463 1.71098,-0.23295 4.25264,-0.58146 5.64806,-0.77451 3.34123,-0.46221 8.79068,-0.5049 10.61211,-0.0835 3.59646,0.83298 6.22304,2.83261 7.3971,5.63228 1.44694,3.45121 0.2325,7.04721 -2.90083,8.58974 -1.23625,0.60838 -2.86557,0.75502 -4.30368,0.38703 z m -37.93685,-22.47625 c 0.84506,-0.64133 1.29751,-1.28498 1.32443,-1.88408 0.0306,-0.68124 -0.34944,-0.75966 -1.00515,-0.20836 -0.50722,0.42693 -1.2112,1.50633 -1.41724,2.17412 -0.16242,0.52624 0.34665,0.48819 1.09796,-0.0817 z m -9.24081,14.14731 c -2.53608,-0.71651 -3.66931,-3.53938 -3.23171,-8.0491 0.40698,-4.19278 2.09059,-9.71648 4.30415,-14.11994 0.41858,-0.83298 0.70537,-1.51283 0.63669,-1.51051 -0.2775,0.009 -3.04747,4.02571 -4.73897,6.87179 -3.26558,5.49539 -4.96265,9.33873 -4.96265,11.23998 0,1.20748 -0.62926,1.44647 -2.51659,0.95503 -1.37826,-0.35872 -2.28085,-1.0432 -2.81359,-2.13189 -0.39816,-0.81442 -0.4325,-1.01907 -0.33412,-2.00613 0.33551,-3.37695 3.25908,-10.6186 5.93671,-14.7051 l 0.28957,-0.44179 -1.05852,0.11695 c -0.99912,0.10998 -2.73238,0.44317 -3.56212,0.68448 l -0.37496,0.10906 0.35361,-0.5991 c 0.19491,-0.32948 0.48355,-1.02093 0.64273,-1.53511 l 0.28911,-0.93601 2.67298,-0.12762 2.67298,-0.12761 0.4687,-0.56847 c 1.44972,-1.758788 4.04566,-1.959718 4.04566,-0.31324 0,0.39027 -0.15406,0.68541 -0.58053,1.11188 -0.31974,0.31974 -0.7193,0.62509 -0.88821,0.67846 -0.68032,0.21578 -2.24605,3.30271 -3.29343,6.49311 -0.35872,1.09194 -0.63019,2.05115 -0.60328,2.13189 0.0269,0.0807 0.57869,-0.64783 1.22605,-1.6191 1.69103,-2.53655 3.76723,-5.08284 5.93531,-7.27877 1.50819,-1.52675 2.02933,-1.952758 2.59224,-2.116108 0.8534,-0.24734 1.41723,-0.0854 1.88361,0.541558 0.45246,0.60745 0.41766,1.9045 -0.10627,3.97698 -1.67525,6.63048 -2.34303,12.88693 -1.65947,15.55898 0.45942,1.79545 1.55599,2.85861 2.94863,2.85861 1.12488,0 1.3221,0.50025 0.6933,1.75878 -0.52206,1.04553 -2.04371,2.39547 -3.1788,2.82009 -1.18753,0.4441 -2.69758,0.5578 -3.68881,0.27797 z m 51.51615,-6.81146 c -1.46179,-0.35732 -2.65767,-1.35784 -3.33844,-2.79318 -0.38239,-0.80607 -0.42601,-1.08867 -0.41766,-2.70082 0.008,-1.50262 0.0821,-2.01865 0.44828,-3.11059 0.24131,-0.72068 0.43946,-1.36526 0.44086,-1.43255 9.3e-4,-0.0678 -0.17449,-0.12297 -0.39028,-0.12297 -0.49561,0 -1.23207,0.82138 -1.78199,1.98849 -0.96152,2.0414 -1.7546,5.10651 -1.7546,6.7813 v 0.92487 l -1.20191,-0.0603 c -1.77921,-0.09 -2.63354,-0.74853 -2.88135,-2.22145 -0.0956,-0.56755 -0.14386,-0.61488 -0.58935,-0.57311 -0.297,0.0278 -0.61117,0.21346 -0.81211,0.4803 -0.83623,1.11142 -1.48963,1.7082 -2.30869,2.10868 -0.79679,0.38981 -1.02789,0.4274 -2.24326,0.36383 -1.62421,-0.0854 -2.5695,-0.48727 -3.62245,-1.54068 -0.39585,-0.39538 -0.84645,-1.05109 -1.00144,-1.45715 -0.155,-0.40558 -0.3267,-0.73739 -0.38238,-0.73692 -0.0552,0 -0.30211,0.31973 -0.54899,0.71001 -0.61348,0.97127 -1.87016,2.18061 -2.66741,2.56624 -2.67948,1.29705 -5.71257,0.33088 -6.96832,-2.22052 -1.41816,-2.88042 -0.20093,-6.02349 2.34676,-6.06061 0.8302,-0.0121 0.83066,-0.0121 1.78755,-1.20702 0.58796,-0.73414 0.95689,-1.35134 0.95689,-1.601 0,-1.5249 1.81447,-2.47158 2.45255,-1.27942 0.18284,0.34248 0.18377,0.52207 0.005,1.06363 -0.19815,0.60002 -0.18191,0.72625 0.20558,1.59775 0.52717,1.18521 1.26503,3.44796 1.26827,3.88882 0.001,0.18238 0.0668,0.43343 0.14572,0.5578 0.22878,0.36057 0.65989,-0.44643 0.92487,-1.73094 0.32345,-1.56574 0.67845,-2.44652 1.4112,-3.50179 1.05806,-1.52212 1.8632,-1.9342 3.81875,-1.95369 a 192.44072,192.44072 0 0 0 2.16622,-0.0348 c 0.90863,-0.0214 1.08822,0.0302 1.6372,0.47009 1.32304,1.06131 1.94256,2.96395 1.80705,5.55154 l -0.0817,1.56481 0.46406,-0.44457 c 0.46406,-0.44503 0.75456,-1.20516 1.94023,-5.08284 0.58007,-1.89476 0.63762,-1.93977 2.25301,-1.75136 1.26038,0.14664 2.06877,0.48726 1.94209,0.81721 -0.0534,0.13922 -0.13876,0.44828 -0.18934,0.68773 l -0.0919,0.43483 0.37914,-0.42276 c 1.44044,-1.60565 3.48369,-2.02655 4.51344,-0.92951 0.6882,0.73321 0.78751,1.66133 0.40048,3.73985 -0.47937,2.57228 -0.50397,2.86742 -0.33644,4.0647 0.2608,1.87015 1.02742,2.63354 2.64374,2.63354 2.32215,0 4.09022,-2.29478 4.31668,-5.60399 0.17681,-2.58017 -0.64272,-4.9232 -2.2957,-6.56272 -0.85155,-0.84459 -2.24605,-1.58477 -2.98622,-1.58477 -0.30999,0 -0.92441,-0.31509 -1.0859,-0.55686 -0.21764,-0.32578 -0.12298,-1.31422 0.19212,-2.00799 0.72625,-1.59961 2.53098,-2.673908 4.49302,-2.673908 3.94915,0 7.09686,3.577898 7.4152,8.430098 0.25385,3.87211 -1.51236,7.9382 -4.48467,10.32532 -1.04274,0.83716 -3.13935,1.89058 -4.33431,2.17829 -0.84273,0.2028 -3.20201,0.22136 -3.9793,0.0311 z m -16.07362,-3.96353 c 0.56243,-0.29607 0.59956,-0.48494 0.18191,-0.93508 -0.59864,-0.64597 -1.35506,-2.17365 -1.60101,-3.23681 l -0.22275,-0.9606 -0.26915,0.88913 c -0.34015,1.12395 -0.35222,2.97787 -0.0232,3.61317 0.40559,0.78472 1.1685,1.03346 1.9342,0.63019 z m -10.61768,-1.07894 c 0.51604,-0.55687 0.65061,-1.23625 0.52949,-2.67948 -0.13457,-1.601 -0.27472,-1.77966 -0.81024,-1.02696 -0.38982,0.54759 -0.40838,0.63855 -0.19491,0.94343 0.38888,0.55456 0.30164,0.91977 -0.21811,0.91977 -1.08358,0 -1.58522,1.14251 -0.8483,1.93373 0.45292,0.48587 1.0395,0.45153 1.54207,-0.0905 z m 12.77555,-3.55376 c 0,-1.4358 -0.0469,-1.74579 -0.31138,-2.03769 -0.17171,-0.1898 -0.4455,-0.34479 -0.60792,-0.34479 -0.94111,0 -0.81303,2.53051 0.19954,3.95285 0.54574,0.76616 0.72023,0.38656 0.72023,-1.57037 z m 17.04304,5.10743 c 0.0297,-0.20279 0.21579,-1.3054 0.41394,-2.45023 0.45199,-2.61265 0.33273,-3.35515 -0.78101,-4.85406 -0.41023,-0.55223 -0.81211,-1.00376 -0.89378,-1.00376 -0.0812,0 -0.14757,-0.0835 -0.14757,-0.18562 0,-0.31371 2.27389,-0.0812 3.03819,0.31092 0.8019,0.41069 1.03022,0.98241 1.16758,2.92171 0.17402,2.45487 -0.68774,4.65916 -2.11008,5.39933 -0.61024,0.31742 -0.74899,0.28958 -0.68681,-0.13829 z m 1.78895,-2.80988 c 0.28679,-0.96524 0.31185,-2.61404 0.0557,-3.63033 -0.18748,-0.74621 -0.63576,-1.21305 -1.1634,-1.21305 -0.2608,0 -0.24688,0.0701 0.12344,0.62972 0.66639,1.00701 0.83855,2.34072 0.51372,3.97792 -0.14943,0.75224 -0.26916,1.44137 -0.26591,1.5314 0.0111,0.34804 0.50768,-0.52532 0.73646,-1.29566 z m -76.53914,0.9077 c -1.55043,-0.51371 -2.76951,-1.55924 -3.38485,-2.90315 -0.45803,-1.00005 -0.7657,-2.67159 -0.62741,-3.4048 0.33876,-1.79406 0.84784,-2.98901 1.24786,-2.92868 0.12483,0.0186 0.85294,0.2311 1.61817,0.47194 1.67433,0.52671 4.3422,0.62092 5.51906,0.19491 0.81303,-0.29421 0.93972,-0.23017 0.5926,0.29978 -0.14061,0.21487 -0.29328,0.85666 -0.33876,1.42652 -0.10302,1.28127 0.29235,2.2971 1.16571,2.99365 0.88079,0.70258 0.75688,1.2692 -0.54527,2.492 -1.01304,0.95132 -2.04046,1.36943 -3.5222,1.43487 -0.72394,0.0325 -1.49984,-0.003 -1.72491,-0.077 z m 60.54812,-7.13119 c -1.48313,-1.91518 -1.90635,-2.04836 -5.88149,-1.85206 -2.10265,0.10395 -2.67066,0.35268 -3.94264,1.7263 l -0.89935,0.97174 -1.05156,-1.3597 c -1.19541,-1.54578 -1.86644,-1.94766 -2.99596,-1.79359 l -0.67521,0.0919 -1.20656,-1.56574 c -0.92719,-1.20191 -1.40192,-1.66829 -2.04649,-2.00659 l -0.83995,-0.44086 1.6372,-0.0947 c 3.43682,-0.19862 5.9627,-1.6567 7.85374,-4.533858 0.25152,-0.38285 0.50257,-0.69284 0.55826,-0.6896 0.0557,0.004 0.4325,0.45292 0.83763,0.99866 0.8469,1.13973 1.51329,1.70681 2.78296,2.36717 0.8367,0.435288 1.03392,0.468688 2.78343,0.471938 1.72583,0.003 1.95137,-0.0334 2.70778,-0.432498 0.79587,-0.42044 2.20336,-1.75832 2.20336,-2.09523 0,-0.09 0.30396,-0.3188 0.67567,-0.50861 l 0.67613,-0.34479 0.71651,0.81906 c 1.76806,2.02144 4.53479,2.821018 6.89313,1.99221 1.12767,-0.39631 1.28823,-0.40373 1.4191,-0.0622 0.064,0.16707 -0.0603,0.425078 -0.33412,0.696088 -0.75039,0.74018 -1.40471,2.35232 -1.42931,3.52128 -0.0204,0.93926 0.0329,1.11375 0.60885,1.98061 0.59028,0.88914 0.60606,0.9439 0.24595,0.8418 -1.59219,-0.45152 -2.66231,-0.42136 -3.66607,0.1021 -0.46267,0.24131 -0.56615,0.23667 -1.47385,-0.0701 -1.27709,-0.43157 -3.07903,-0.4738 -3.79322,-0.0882 -0.43993,0.23667 -0.581,0.46963 -0.8664,1.42838 -0.18748,0.62973 -0.39306,1.14019 -0.4571,1.13416 -0.0636,-0.006 -0.53181,-0.54806 -1.04042,-1.20516 z m 2.0233,-2.10219 c 0.78426,-0.39863 2.89851,-0.40744 4.13662,-0.0172 0.80979,0.25523 0.91652,0.25523 1.54532,0.004 0.37125,-0.1485 0.97824,-0.27008 1.34902,-0.27008 h 0.67381 l -0.0998,-0.85944 c -0.11323,-0.9787 0.22879,-2.87716 0.61953,-3.43496 0.13967,-0.19955 0.25383,-0.40141 0.25383,-0.44875 0,-0.0473 -0.71836,-0.0882 -1.59636,-0.09 -2.22099,-0.006 -3.57743,-0.55826 -5.268,-2.146738 -0.39909,-0.37495 -0.80421,-0.64643 -0.90028,-0.60373 -0.0965,0.0427 -0.39862,0.38377 -0.67149,0.75827 -0.63112,0.86686 -2.03583,1.851588 -3.08599,2.162978 -1.04785,0.31092 -2.88366,0.30952 -4.08558,-0.003 -1.21954,-0.31788 -2.60801,-1.190308 -3.59553,-2.259968 l -0.78565,-0.85062 -0.44179,0.5643 c -0.71929,0.91884 -1.99035,2.063668 -2.90826,2.619608 -0.99819,0.60513 -2.9013,1.30958 -3.55005,1.31468 -0.25431,0.002 -0.44642,0.0928 -0.44178,0.2079 0.005,0.11277 0.40002,0.67753 0.87846,1.25528 0.84273,1.01768 0.89471,1.05109 1.70217,1.09193 1.15133,0.0585 1.60101,0.31974 2.55836,1.48638 0.45478,0.55548 0.89331,1.01629 0.97313,1.02325 0.0798,0.007 0.47241,-0.28771 0.87151,-0.65571 1.11605,-1.02836 1.92537,-1.31561 3.86885,-1.37315 0.9142,-0.0269 1.7922,-0.1021 1.95091,-0.16706 0.15871,-0.0654 0.76616,-0.0283 1.35041,0.0817 1.20052,0.22646 2.31937,0.88357 2.98066,1.7509 l 0.43111,0.56475 0.33969,-0.69794 c 0.226,-0.46406 0.54295,-0.80143 0.94761,-1.00701 z m -28.46261,2.38526 c -1.14762,-1.36016 -3.08414,-2.03907 -4.91067,-1.72166 -0.52717,0.0914 -0.9852,0.14108 -1.01769,0.10998 -0.0325,-0.0315 0.0302,-0.43064 0.13969,-0.88774 0.31556,-1.31468 0.26544,-2.59641 -0.13644,-3.50504 -0.19397,-0.439 -0.35315,-0.81814 -0.35315,-0.8418 0,-0.0241 0.5708,0.13921 1.26874,0.36289 2.41636,0.77405 4.89768,0.32994 6.98549,-1.25018 l 1.02371,-0.774968 0.47705,0.391198 c 0.2622,0.21486 0.99262,0.64272 1.62282,0.95086 l 1.14622,0.55965 -0.65525,0.007 c -1.0743,0.0107 -1.8437,0.18794 -2.182,0.50304 -0.32485,0.30256 -0.5592,0.86732 -1.95462,4.70556 l -0.79122,2.17783 z m 1.43719,-3.69391 c 0.84737,-2.42053 0.93926,-2.60105 1.61029,-3.17741 0.36939,-0.31695 0.38377,-0.368 0.13086,-0.46685 -0.18516,-0.0724 -0.45849,0.0357 -0.78379,0.30953 -0.69238,0.5824 -2.39176,1.36898 -3.44704,1.59544 -0.53598,0.11462 -1.446,0.14896 -2.31751,0.0872 l -1.43487,-0.10209 v 1.30818 c 0,0.71929 -0.0186,1.34809 -0.0408,1.39774 -0.0227,0.0497 0.45571,0.11416 1.06316,0.14386 1.29473,0.0622 2.80385,0.58333 3.58254,1.23579 0.67196,0.56291 0.57404,0.70213 1.6372,-2.33189 z m -35.9089,0.45246 c -2.28735,-0.57543 -4.62945,-2.13468 -7.672288,-5.10604 l -1.896146,-1.851598 h -1.167573 c -1.436263,0 -2.915684,-0.49747 -3.175557,-1.0678 -0.373568,-0.81953 0.375888,-1.93884 1.430695,-2.13699 0.319272,-0.0599 1.000511,-0.0603 1.514225,0 1.826073,0.2116 1.665972,0.27008 2.270642,-0.82603 l 0.552694,-1.0033 -0.944825,-0.37867 c -5.037826,-2.02051 -8.603657,-7.3029 -7.901072,-11.70264 0.338764,-2.12308 1.269666,-3.48741 2.907331,-4.26193 0.820457,-0.38841 1.060375,-0.426 2.31844,-0.36474 1.855773,0.0905 3.229852,0.73878 4.519937,2.13189 1.19356,1.28915 1.164788,1.60193 -0.169846,1.84045 -1.552278,0.27705 -2.39965,1.57085 -2.39965,3.66189 0,1.83165 0.457098,2.9607 1.689176,4.17421 0.532276,0.52439 1.05527,0.92395 1.162468,0.88821 0.106733,-0.0357 0.436216,-0.94343 0.732749,-2.01679 1.89615,-6.87643 2.60476,-8.49508 4.56727,-10.43345 1.15922,-1.1453 2.51799,-1.7509 3.93058,-1.75183 3.53149,-0.002 5.31487,2.41312 5.07727,6.8769 -0.0928,1.73651 -0.53134,3.75888 -1.09193,5.0318 -1.5713,3.56768 -5.35246,6.26619 -9.40369,6.71168 l -1.13834,0.1253 -0.58936,1.04413 c -0.324837,0.57358 -0.838086,1.33881 -1.141581,1.70032 -0.639009,0.76105 -0.707226,0.65757 1.171751,1.78198 2.17876,1.30354 4.54453,1.801018 5.70607,1.20053 0.48958,-0.25292 0.76199,-0.85944 0.58889,-1.31005 -0.0998,-0.25987 -0.20233,-0.31045 -0.98148,-0.48215 -0.42601,-0.0937 -0.46035,-0.15175 -0.37079,-0.62741 0.18331,-0.97545 1.77271,-2.07574 3.00293,-2.07898 0.59539,-9.3e-4 1.88408,0.49793 2.58435,1.00097 1.97503,1.41909 2.70407,4.604388 1.56527,6.836988 -0.46267,0.90677 -1.38383,1.79312 -2.28735,2.20103 -0.96803,0.43714 -3.58625,0.53831 -4.96079,0.19258 z m -1.59079,-15.730218 c 1.81261,-0.52902 3.43496,-1.80519 4.56031,-3.58671 0.82277,-1.30261 1.10492,-1.98293 1.4952,-3.60249 0.37774,-1.5662 0.40094,-2.51335 0.0812,-3.27951 -0.1912,-0.45663 -0.32717,-0.56754 -0.69609,-0.56615 -1.17593,0.002 -2.40383,1.48128 -4.11899,4.95894 -0.63019,1.27848 -1.42002,3.13518 -1.75415,4.12548 a 214.39536,214.39536 0 0 1 -0.68356,2.00567 c -0.0984,0.26451 0.0436,0.25801 1.11653,-0.0552 z m 22.18806,10.3114 c -0.0617,-0.16103 0.19862,-0.71001 0.67892,-1.43209 0.42879,-0.64411 0.91883,-1.48406 1.09054,-1.86644 0.17031,-0.38286 0.35454,-0.69377 0.40837,-0.69052 0.0538,0.003 0.51974,0.57357 1.03624,1.26873 l 0.93833,1.26317 -0.70537,0.10535 c -0.81071,0.12065 -1.80658,0.59306 -2.52402,1.1968 -0.57497,0.483548 -0.78333,0.518818 -0.92301,0.15546 z m 2.48782,-2.00613 c 0.17077,-0.10812 0.16521,-0.17402 -0.0292,-0.33551 -0.19723,-0.16382 -0.27519,-0.13829 -0.42276,0.13736 -0.19583,0.36567 0.0316,0.46498 0.45199,0.19815 z m 50.54997,1.34113 c -0.0664,-0.17356 0.0613,-0.4557 0.35129,-0.77683 0.2506,-0.27751 0.47845,-0.54063 0.50722,-0.58472 0.0775,-0.11972 0.6766,0.70166 0.68078,0.93369 0.005,0.21903 -0.81953,0.6998 -1.19821,0.6998 -0.12993,0 -0.28307,-0.12251 -0.34108,-0.27194 z m -44.94367,-0.56893 c -1.31375,-0.21811 -2.42471,-0.7903 -3.54402,-1.827 -2.84236,-2.63122 -3.3041,-6.98781 -0.98937,-9.33966 1.20423,-1.22419 1.84927,-1.49659 3.54448,-1.49659 1.4525,0 2.19221,0.2311 2.9245,0.91327 0.45107,0.41997 0.44039,0.56383 -0.0752,1.00979 -0.98334,0.84923 -1.1091,1.99221 -0.30303,2.74909 0.89471,0.84087 2.43306,0.26915 3.65122,-1.35645 1.10121,-1.46968 1.68824,-2.69155 3.87211,-8.06071 0.51185,-1.25806 1.1091,-2.64096 1.32813,-3.073 0.49237,-0.97174 0.36336,-1.05666 -1.18892,-0.78658 -1.76481,0.30721 -2.84653,1.02557 -3.51339,2.33236 -0.62462,1.22466 -0.23945,3.17974 0.75503,3.83128 0.62741,0.41115 0.53831,1.03114 -0.26266,1.82375 -1.59451,1.57873 -4.38026,1.29379 -6.10238,-0.62416 -0.87986,-0.97916 -1.317,-2.19871 -1.317,-3.67164 0,-2.98529 1.87573,-5.05314 5.44666,-6.00354 1.67479,-0.44549 5.15895,-0.47798 6.78177,-0.0622 l 1.11095,0.284 0.33737,-0.42879 c 0.69052,-0.87801 2.02516,-1.28452 3.00108,-0.91327 0.67195,0.25523 0.6404,0.53505 -0.15314,1.36294 -0.40745,0.42508 -0.7411,0.84459 -0.7411,0.93229 0,0.0872 0.28771,0.34016 0.63947,0.56244 1.46039,0.92162 3.39134,3.27719 4.25635,5.19144 0.9838,2.1769 1.23811,3.43032 1.24089,6.11398 0.002,2.11657 -0.0501,2.62518 -0.37913,3.6837 -0.47799,1.53882 -1.59637,3.36304 -2.63308,4.29487 -3.05722,2.74862 -7.71173,2.9129 -10.2622,0.36289 l -0.68959,-0.68959 -0.79262,0.8121 c -1.68268,1.72166 -3.73707,2.43817 -5.9432,2.07296 z m 11.7175,-5.36499 c 1.46596,-0.68588 2.93053,-2.17319 3.72268,-3.78023 0.82556,-1.67479 1.08357,-2.75698 1.0859,-4.55521 0.003,-2.34303 -0.73322,-4.25542 -2.27018,-5.90097 -0.27612,-0.29561 -0.57497,-0.4919 -0.6636,-0.43714 -0.17264,0.10627 -0.95504,2.44187 -1.81216,5.40907 -1.14344,3.95657 -2.51149,7.68436 -3.30503,9.00414 -0.52763,0.87753 -0.439,0.95828 0.93833,0.85387 0.89285,-0.0673 1.5314,-0.23203 2.30452,-0.59353 z m -32.08367,4.00715 c -3.31059,-1.20841 -3.13518,-8.0505 0.29468,-11.48129 1.46132,-1.46179 2.82056,-1.74579 4.11435,-0.85898 0.28308,0.19398 0.65433,0.56059 0.82464,0.81536 0.17031,0.2543 0.35129,0.46266 0.40233,0.46266 0.0511,4.7e-4 0.21533,-0.25709 0.36568,-0.57218 0.26637,-0.55826 0.29793,-0.57311 1.22837,-0.57311 0.52531,0 1.34484,0.11601 1.8205,0.25709 1.00283,0.29746 0.99448,0.13921 0.13783,2.52587 -1.0627,2.96163 -1.35506,4.66287 -0.83531,4.86241 0.36429,0.13968 0.85248,-0.48772 1.79776,-2.31101 0.73507,-1.41724 0.76338,-1.44879 0.9671,-1.05992 0.34387,0.65712 0.58193,2.29849 0.41626,2.87532 -0.24502,0.85479 -1.46364,3.07578 -2.08641,3.80343 -1.59914,1.8683 -3.94218,1.69938 -4.99281,-0.35965 l -0.34851,-0.68356 -0.26358,0.4028 c -1.1388,1.73837 -2.47112,2.39548 -3.84288,1.89476 z m 3.22939,-4.64291 c 0.52439,-0.83345 1.03671,-2.01448 1.50541,-3.47209 0.48355,-1.5017 0.48587,-1.57595 0.0543,-1.68918 -1.07058,-0.27983 -2.42332,1.31329 -3.0317,3.57186 -0.31417,1.16479 -0.28215,1.82515 0.10674,2.21357 0.41951,0.42043 0.82416,0.23528 1.36526,-0.62416 z m 42.77976,4.13987 c -2.25347,-0.61952 -3.75748,-2.54444 -4.09207,-5.23784 -0.2724,-2.195 0.36661,-4.46889 1.73373,-6.17013 0.73321,-0.9128 1.66272,-1.30586 3.01684,-1.2757 0.61256,0.0139 1.53233,-0.0269 2.04419,-0.0905 0.78286,-0.097 1.05295,-0.0566 1.69288,0.25338 1.54022,0.74527 2.44095,2.8122 2.43446,5.58773 -0.004,1.66319 0.0812,1.79452 0.65293,1.01397 0.20233,-0.27704 0.355,-0.87985 0.44364,-1.75321 0.18284,-1.79823 2.00984,-7.82265 3.20386,-10.56338 l 0.38471,-0.88311 1.14298,0.0961 c 1.46828,0.12298 2.03026,0.38656 2.09894,0.98474 0.0297,0.25523 -0.2506,1.26409 -0.63344,2.28131 -1.26364,3.35747 -1.33742,3.61131 -1.01165,3.47348 1.06269,-0.45106 1.58244,-0.56011 2.21217,-0.46406 0.95781,0.14711 1.46503,0.43483 2.12632,1.20749 0.86129,1.00608 1.18335,2.19361 1.18335,4.36447 0,1.39079 0.0464,1.78895 0.19397,1.66644 0.10674,-0.0882 0.2441,-0.39538 0.30536,-0.68217 0.27797,-1.29936 3.52685,-11.31747 3.71247,-11.44555 0.25941,-0.17913 2.1588,-0.0441 2.85211,0.20279 0.28354,0.10117 0.55316,0.32809 0.59956,0.50397 0.0459,0.17634 -0.12344,0.96385 -0.37589,1.7495 -1.37315,4.26656 -2.45162,8.25794 -2.4558,9.08814 -0.003,0.57775 0.39724,0.74249 0.83717,0.34386 0.47148,-0.42693 1.36154,-1.98756 1.87897,-3.29574 1.1221,-2.83633 3.09713,-4.27724 5.61697,-4.09672 2.33097,0.16707 3.74125,1.8581 3.58579,4.30137 -0.0882,1.38661 -0.78519,2.75558 -1.74672,3.43125 -0.61859,0.43529 -0.84644,0.49747 -1.81122,0.49747 -0.95689,0 -1.18382,-0.0608 -1.70496,-0.45849 -0.67195,-0.51232 -0.75131,-0.38934 -0.44224,0.68867 0.41347,1.4409 1.53603,2.31287 3.00153,2.33004 1.1323,0.0139 1.74393,-0.30767 2.56532,-1.3467 0.85897,-1.08683 1.32721,-2.60662 1.33092,-4.32179 0.002,-0.96431 0.0715,-1.38428 0.26359,-1.59636 0.34108,-0.37682 1.24878,-0.36707 2.1059,0.0223 1.25992,0.57218 1.79498,1.68221 1.66736,3.46188 -0.20418,2.85721 -2.41775,5.30605 -5.54875,6.1395 -1.01954,0.27147 -3.01732,0.30303 -4.05263,0.0645 -1.71749,-0.39585 -3.725,-1.79545 -4.46518,-3.11245 -0.19908,-0.35361 -0.40512,-0.64319 -0.45803,-0.64319 -0.0529,0 -0.24177,0.27612 -0.41997,0.61395 -0.41116,0.77962 -1.65066,2.12725 -2.23398,2.42889 -0.58286,0.30164 -2.15416,0.297 -2.74398,-0.008 -0.67753,-0.35037 -1.3054,-1.17082 -1.52583,-1.99406 -0.14664,-0.54899 -0.25291,-0.69563 -0.44411,-0.61395 -0.13828,0.0585 -0.41997,0.14339 -0.62648,0.18794 -0.20557,0.0446 -0.4789,0.28307 -0.60698,0.53042 -0.33784,0.65432 -1.79963,1.91285 -2.48226,2.13792 -0.91326,0.30164 -3.09899,0.12483 -3.96214,-0.3202 -0.9179,-0.47334 -1.96482,-1.55553 -2.45162,-2.53284 l -0.38285,-0.76895 -0.62184,0.56152 c -0.34247,0.30952 -0.84876,0.61209 -1.12534,0.67288 -0.32391,0.071 -0.62323,0.30396 -0.83809,0.65201 -1.20099,1.94301 -3.35237,2.76022 -5.6244,2.1356 z m 1.99685,-3.5301 0.55316,-0.33691 -0.41069,-0.43992 c -0.69145,-0.74203 -1.30958,-1.85856 -1.69057,-3.05584 l -0.36336,-1.14297 -0.21347,0.73321 c -0.11833,0.40373 -0.21578,1.29472 -0.21718,1.97967 -0.002,1.05992 0.0575,1.33464 0.40234,1.83768 0.57404,0.83855 1.08034,0.94947 1.93977,0.42508 z m 12.01217,-0.21672 c 0.38981,-0.29607 0.37775,-0.33273 -0.36243,-1.09518 -0.68773,-0.70862 -1.63534,-2.42703 -1.65483,-3.0006 -0.0111,-0.33598 -0.0139,-0.33645 -0.15221,-0.0148 -0.19491,0.45338 -0.19723,2.34071 -0.004,3.01499 0.32855,1.14576 1.39728,1.68453 2.17319,1.09518 z m -10.1267,-2.6507 c 0.0548,-0.14247 0.0988,-0.86037 0.0988,-1.59637 -9.3e-4,-1.56573 -0.36382,-2.40104 -1.04413,-2.40104 -0.4738,0 -0.5926,0.26358 -0.5926,1.31561 0,0.84227 0.16149,1.32721 0.77405,2.32679 0.40744,0.66546 0.60884,0.7592 0.76384,0.35501 z m 11.71936,-1.45993 c 0.003,-1.65809 -0.43483,-2.71057 -0.98428,-2.36949 -0.34896,0.21625 -0.29513,2.04 0.0817,2.77879 0.65897,1.29194 0.90028,1.18288 0.9026,-0.4093 z m 15.0202,0.38656 c 0.74528,-0.46081 1.51747,-1.54486 1.51747,-2.13003 0,-1.10632 -1.43069,-0.16892 -2.1458,1.40563 -0.52439,1.15365 -0.36476,1.33789 0.62833,0.72393 z"
       id="path824"
       style="fill:#ff1493;fill-opacity:1;stroke-width:0.464059" />
    <path
       fill="#000000"
       strokeWidth="0.353"
       d="m 173.7875,140.06665 c -0.68496,-0.20279 -1.81262,-0.69283 -2.50593,-1.08961 -1.03345,-0.59121 -1.42698,-0.94204 -2.19221,-1.95462 -0.51278,-0.67891 -1.02232,-1.32952 -1.13231,-1.44647 -0.11044,-0.11694 -0.28307,-0.48911 -0.3847,-0.82695 -0.24966,-0.83391 0.1123,-1.70403 0.90399,-2.17087 0.38795,-0.22878 0.581,-0.46406 0.581,-0.70537 0,-0.29932 -0.17959,-0.42415 -1.02279,-0.70908 -2.28317,-0.77173 -4.19416,-0.98845 -10.47753,-1.18938 -5.28331,-0.16892 -7.94098,-0.44457 -9.64593,-1.00098 -2.39733,-0.7824 -4.67772,-2.30498 -6.03602,-4.03175 -0.6998,-0.8896 -0.80375,-0.95921 -1.06548,-0.71372 -0.25059,0.23481 -2.05532,0.80885 -2.87949,0.91605 l -0.75966,0.0988 -0.37032,1.15087 c -1.12813,3.50968 -4.12456,5.71024 -7.77439,5.71024 -1.42605,0 -2.57645,-0.32577 -3.61919,-1.02464 -0.75967,-0.50954 -2.57553,-2.59781 -3.45075,-3.96863 -0.23017,-0.36012 -0.44178,-0.68217 -0.47055,-0.71558 -0.0288,-0.0329 -0.3035,0.2065 -0.61117,0.53227 l -0.55873,0.5926 h -1.47802 c -2.91894,0 -4.47493,-0.80839 -6.45971,-3.35607 -1.60611,-2.06181 -2.05346,-2.81127 -2.19129,-3.67303 -0.10951,-0.68542 -0.10998,-0.68634 -0.70908,-0.58471 -1.4112,0.23806 -3.809,-0.51418 -5.1557,-1.61771 -0.77962,-0.63901 -3.41547,-4.05727 -3.90088,-5.05825 -0.835304,-1.72351 -1.033457,-4.33431 -0.467305,-6.15482 l 0.309065,-0.99262 -1.628849,-1.60054 -1.628385,-1.60054 -1.340666,-0.19258 c -2.702217,-0.38842 -3.095276,-0.62741 -4.909747,-2.985298 -1.595899,-2.07434 -1.768065,-2.58295 -1.357373,-3.99648 0.247807,-0.85201 0.996799,-1.73743 1.990814,-2.35277 0.218107,-0.13551 0.258945,-0.23714 0.131328,-0.32763 -0.101628,-0.0724 -0.937399,-1.12581 -1.856236,-2.34118 -2.601052,-3.43729 -3.435431,-5.48518 -3.440535,-8.43799 -0.0042,-2.52912 0.697945,-4.41413 2.182006,-5.85968 2.807558,-2.7347 7.429124,-2.49478 10.589368,0.54991 0.558263,0.53785 1.031135,0.97824 1.051095,0.97824 0.0199,0 0.31092,-0.39909 0.64643,-0.88635 2.25208,-3.27023 5.73299,-4.70139 8.98883,-3.69577 1.53743,0.47473 2.42146,1.16571 3.97699,3.10873 1.58105,1.97458 2.25811,3.24563 2.5514,4.79142 l 0.2065,1.09053 0.79493,0.17031 c 0.43715,0.0937 0.95504,0.25663 1.15087,0.36151 0.20187,0.10859 1.16804,0.20232 2.23816,0.21717 2.3718,0.0325 3.49668,0.41163 4.54314,1.52908 0.38238,0.40884 0.69609,0.79169 0.69609,0.85062 0,0.0585 0.15453,0.284 0.3434,0.50026 0.1898,0.21625 0.44178,0.52995 0.56012,0.69748 0.20094,0.28307 0.28029,0.23852 1.17036,-0.665 0.87243,-0.88635 1.6372,-1.37315 2.8948,-1.84324 0.35361,-0.1318 0.43807,-0.24317 0.34897,-0.45849 -0.5462,-1.32257 -0.51093,-4.14545 0.0705,-5.64621 0.88635,-2.28735 2.96209,-3.96679 6.07129,-4.91207 1.31004,-0.39863 5.84807,-0.59121 7.18224,-0.30489 0.80654,0.1731 0.87475,0.1601 1.48963,-0.28539 1.28777,-0.93276 2.86417,-1.06548 4.31621,-0.3629 0.56894,0.27565 1.06409,0.77498 2.14303,2.16344 1.27291,1.63721 1.40331,1.87202 1.40331,2.52124 0,0.39352 -0.0817,0.89471 -0.18097,1.11374 -0.16243,0.35594 -0.09,0.51511 0.69376,1.52212 0.48123,0.61766 0.96246,1.21583 1.0692,1.32721 0.10673,0.1123 0.426,0.60977 0.71001,1.10539 0.28307,0.49561 0.56011,0.9012 0.61534,0.9012 0.0548,0 0.43482,-0.16242 0.84412,-0.36011 0.74714,-0.36196 2.11843,-0.50118 5.17101,-0.52624 1.31979,-0.0107 2.21496,0.36057 3.22986,1.33974 0.33597,0.32437 0.63715,0.55733 0.66917,0.51835 0.0325,-0.0394 0.48587,-1.32396 1.00887,-2.85443 0.52299,-1.53093 1.11513,-3.15839 1.31607,-3.61688 0.65061,-1.48499 1.77827,-1.91563 4.02432,-1.53789 2.06274,0.34665 2.70871,0.73136 4.02014,2.39362 0.63298,0.80282 1.24275,1.63117 1.35505,1.84139 0.25013,0.46684 0.16196,1.317 -0.24362,2.34721 l -0.3035,0.77219 0.39074,0.4158 0.39073,0.41626 0.55919,-1.76157 a 133.7762,133.7762 0 0 0 0.88729,-2.90733 c 0.38285,-1.33603 0.73089,-1.77224 1.71423,-2.14767 1.17082,-0.44735 3.79693,-0.0854 5.1441,0.70909 0.27286,0.16103 0.91002,0.84505 1.41538,1.52072 0.50536,0.67521 0.96849,1.26456 1.02882,1.30957 0.0608,0.045 0.19769,0.24735 0.30442,0.45014 0.16706,0.31788 0.32484,0.36846 1.15319,0.36846 2.0233,0 4.06887,1.02882 5.14966,2.59131 0.40652,0.58704 0.55548,0.6831 1.06409,0.68449 0.88914,0.003 2.16716,0.38981 2.90687,0.87939 0.57543,0.38053 2.24233,2.30452 3.27951,3.7844 0.78379,1.11839 1.06316,3.09667 0.6868,4.86241 -0.65757,3.08971 -3.45724,5.898668 -6.75206,6.775268 -2.97694,0.79262 -6.33348,0.15778 -8.67558,-1.639518 -0.55873,-0.42925 -0.8483,-0.56012 -0.96942,-0.439 -0.12066,0.12112 0.0594,0.37682 0.60513,0.85712 0.67659,0.595848 2.16019,2.363908 3.55376,4.235928 0.68217,0.91605 1.42281,2.50128 1.81262,3.88 0.48772,1.72584 0.51974,4.96218 0.0668,6.76134 -1.12071,4.44801 -4.3965,8.25933 -8.42267,9.79954 -0.68867,0.26312 -1.58338,0.52903 -1.9885,0.58982 -1.4242,0.21579 -1.40146,0.16289 -0.56801,1.33092 2.78528,3.90274 2.60337,8.7503 -0.43946,11.72771 -2.1602,2.11379 -5.20675,2.79595 -8.34147,1.86783 z m 5.97197,-1.14251 c 2.16066,-1.06734 3.52407,-3.02938 3.89578,-5.60444 0.35361,-2.45023 -0.39538,-4.71252 -2.39455,-7.2319 -0.58889,-0.7425 -1.07105,-1.37593 -1.07105,-1.40796 0,-0.0316 0.64505,-0.10348 1.43256,-0.15917 2.94445,-0.20929 5.13249,-1.26595 7.50847,-3.62662 1.50031,-1.49009 1.73373,-1.80658 2.47808,-3.36211 1.17964,-2.46415 1.40935,-3.4294 1.42002,-5.97383 0.0107,-2.36439 -0.21578,-3.49251 -1.06733,-5.31859 -0.94668,-2.03165 -4.52829,-6.307488 -5.55572,-6.633728 -0.18702,-0.0594 -0.31788,-0.16705 -0.2905,-0.23991 0.0868,-0.22878 1.44276,-1.64138 1.56759,-1.63349 0.0659,0.005 0.4144,0.30164 0.77452,0.66082 0.3601,0.35871 1.17035,0.90863 1.80055,1.22186 3.52545,1.752758 7.68342,1.195418 10.45015,-1.40099 1.69195,-1.58754 2.56485,-3.46884 2.56485,-5.52602 0,-1.57548 -0.25616,-2.15787 -1.85577,-4.22201 -1.75183,-2.25996 -2.39455,-2.68829 -4.23129,-2.82009 l -1.10957,-0.0789 -0.66825,-0.88496 c -1.31793,-1.74626 -2.87716,-2.45998 -5.01926,-2.29803 -1.07987,0.0817 -1.19495,0.0617 -1.19495,-0.2079 0,-0.43853 -2.24605,-3.40944 -2.79039,-3.69112 -0.67103,-0.34712 -2.39919,-0.72765 -3.3157,-0.73043 -0.8548,-0.003 -1.6567,0.32716 -1.88965,0.77684 -0.0812,0.15684 -0.60746,1.79498 -1.16944,3.641 -0.56197,1.84557 -1.05433,3.39042 -1.09378,3.43265 -0.0399,0.0422 -0.26823,-0.17866 -0.50768,-0.49098 a 15.102343,15.102343 0 0 0 -0.99309,-1.13601 l -0.5578,-0.56801 0.37079,-0.98752 c 0.63761,-1.69753 0.62276,-1.82979 -0.35455,-3.11708 -0.47751,-0.62927 -1.10121,-1.37919 -1.3866,-1.66598 -0.66825,-0.67381 -2.05671,-1.08775 -3.70088,-1.10307 -1.07337,-0.0102 -1.31514,0.0394 -1.60703,0.33088 -0.34898,0.34804 -1.23672,2.65673 -2.46926,6.42165 -0.37403,1.14159 -0.70909,2.10869 -0.74482,2.14952 -0.0362,0.0404 -0.50118,-0.4093 -1.03392,-0.99958 -1.26967,-1.40703 -2.24791,-1.85949 -3.67535,-1.69892 -0.54666,0.0613 -1.49335,0.10116 -2.10451,0.0886 -1.32767,-0.0274 -2.11704,0.19769 -2.931,0.83531 -0.33226,0.25987 -0.63901,0.47334 -0.6817,0.47334 -0.0427,0 -0.33505,-0.46127 -0.64968,-1.02418 -0.3151,-0.5629 -1.23812,-1.90125 -2.05161,-2.97462 l -1.47942,-1.95044 0.41162,-0.48958 c 0.30721,-0.36475 0.38517,-0.59678 0.30581,-0.91235 -0.10766,-0.42832 -1.55134,-2.41635 -2.4558,-3.38206 -1.07105,-1.14344 -3.15049,-1.1634 -4.42712,-0.0427 l -0.57218,0.50258 -1.00794,-0.19816 c -0.55455,-0.10905 -1.93745,-0.19815 -3.073,-0.19815 -5.68798,0 -9.41205,2.40382 -9.97032,6.43604 -0.17309,1.2511 0.0227,2.84793 0.47381,3.86793 0.17866,0.40373 0.32484,0.75549 0.32484,0.78194 0,0.026 -0.37078,0.12669 -0.8237,0.22414 -1.80055,0.3861 -3.34402,1.6437 -4.18025,3.4062 -0.26451,0.5564 -0.53552,1.01536 -0.60328,1.01953 -0.0673,0.005 -0.12251,-0.2543 -0.12251,-0.57543 0,-0.73971 -0.14246,-1.00098 -1.43765,-2.634 -1.07291,-1.35227 -1.50263,-1.65066 -2.90037,-2.01309 -0.86037,-0.22274 -2.47158,-0.2181 -2.8948,0.008 -0.27148,0.14525 -0.48866,0.0965 -1.1388,-0.25755 -0.44179,-0.24044 -1.18892,-0.47712 -1.65994,-0.52584 l -0.85666,-0.0882 -0.28679,-1.46365 c -0.15778,-0.80467 -0.426,-1.73558 -0.59585,-2.06877 -0.61766,-1.21119 -3.15142,-4.31111 -3.92501,-4.80301 -1.80194,-1.14484 -4.15565,-1.27617 -6.13718,-0.34202 -1.36759,0.64458 -3.21547,2.4261 -4.02943,3.88511 -0.30164,0.54063 -0.56987,1.01026 -0.59678,1.04413 -0.0264,0.0334 -0.248736,-0.18748 -0.494223,-0.49144 -0.245488,-0.30395 -0.828346,-0.92394 -1.29519,-1.37825 -3.353291,-3.25863 -8.558643,-2.83076 -10.509084,0.86361 -0.699802,1.32535 -0.914661,2.47669 -0.821385,4.3965 0.0956,1.94719 0.499328,3.30549 1.457146,4.89768 0.805607,1.3402 3.332873,4.69721 4.058662,5.39144 0.276579,0.26451 0.50304,0.53227 0.50304,0.59446 0,0.0627 -0.346189,0.20094 -0.768946,0.30721 -1.717483,0.4325 -2.792245,2.33978 -2.073417,3.67906 0.540629,1.00701 2.492926,3.349578 3.016385,3.620588 0.608382,0.31463 2.455801,0.7244 3.283683,0.72857 0.482622,0.002 0.742495,0.14711 1.400531,0.78055 0.444104,0.4274 1.369439,1.29983 2.056248,1.93838 l 1.24878,1.16153 -0.39816,1.09704 c -0.31046,0.8548 -0.39816,1.42002 -0.39816,2.55975 0,2.24372 0.37913,3.19226 2.27899,5.69679 2.39594,3.15885 3.61131,3.87675 6.51632,3.84844 l 1.51051,-0.0148 0.0905,0.59446 c 0.22461,1.47479 0.4107,1.81447 2.31937,4.22759 1.71377,2.16669 3.02892,2.82704 5.63507,2.83122 1.64741,0.003 1.71609,-0.0807 1.94905,-2.36995 0.10024,-0.98659 0.20279,-1.81447 0.22832,-1.84 0.0251,-0.0251 0.20001,0.52532 0.38842,1.22373 0.48494,1.7973 0.72068,2.28967 1.75599,3.65911 2.44281,3.23402 3.19134,3.76119 5.50143,3.87907 2.18479,0.11137 3.78672,-0.44132 5.34689,-1.84464 1.26734,-1.13927 2.48364,-3.58254 2.2892,-4.59929 -0.071,-0.37078 -0.0288,-0.39816 0.61534,-0.39816 1.16015,0 2.40383,-0.30164 3.48416,-0.84598 0.59956,-0.30164 1.08311,-0.45525 1.15922,-0.368 0.0719,0.0826 0.47798,0.60096 0.90213,1.15133 1.9523,2.53562 4.78909,3.99183 8.69693,4.46518 0.81071,0.0979 3.60992,0.25198 6.22118,0.34154 5.36592,0.1847 6.30564,0.25245 8.26722,0.59678 1.72769,0.3035 2.6985,0.58333 3.57604,1.03068 0.60513,0.30906 0.68031,0.41162 0.68031,0.92812 0,0.7657 -0.20001,1.10631 -0.89099,1.51376 -0.64644,0.38145 -0.86872,0.96524 -0.57544,1.5133 0.10952,0.20418 0.67474,0.9787 1.25621,1.72119 0.94204,1.20192 1.20423,1.42373 2.39362,2.02562 1.93187,0.97731 2.67947,1.1504 4.72505,1.09425 1.64184,-0.045 1.82839,-0.0859 2.97462,-0.65293 z m -6.93675,-3.12961 c -1.36666,-0.34991 -2.09338,-0.70259 -2.39362,-1.16108 -0.26034,-0.39677 -0.25245,-0.45431 0.18284,-1.31422 0.38424,-0.76012 0.44085,-1.03392 0.36475,-1.77177 -0.32763,-3.1751 -2.90873,-4.96822 -8.14007,-5.65457 -0.76569,-0.1007 -4.04381,-0.29003 -7.28526,-0.4209 -6.33023,-0.25616 -7.35209,-0.36661 -9.24963,-1.00283 -1.62374,-0.54434 -2.57228,-1.07662 -3.6772,-2.06089 -1.11746,-0.99633 -1.78895,-1.94998 -2.26601,-3.21871 l -0.36289,-0.96571 -0.73507,0.7244 c -0.4042,0.39863 -1.14019,0.9244 -1.63534,1.1685 -0.78798,0.38841 -1.09518,0.4441 -2.45581,0.44457 -1.71098,0 -2.35278,-0.22739 -3.68788,-1.30958 -2.60894,-2.11472 -2.30498,-7.2732 0.58843,-9.97959 1.17407,-1.09843 2.08641,-1.47246 3.59089,-1.47246 2.39548,0 3.83406,1.37918 3.83545,3.67674 0.001,2.66463 -1.54764,4.57052 -3.72361,4.58027 -0.8418,0.004 -1.27013,-0.15732 -1.89475,-0.7128 l -0.39121,-0.34804 0.10859,0.70769 c 0.57265,3.73567 5.50003,1.80379 6.6328,-2.60059 0.27751,-1.07801 1.52444,-4.66937 2.9904,-8.61155 0.57775,-1.5532 0.70351,-1.62653 2.34257,-1.3648 1.58337,0.25291 1.94348,0.42276 1.82793,0.86315 -0.0529,0.20094 -0.79354,2.42796 -1.64555,4.9492 -1.98571,5.87266 -2.24466,7.36554 -1.63442,9.41993 1.07012,3.60435 4.74176,4.70788 12.26091,3.68463 1.71098,-0.23295 4.25264,-0.58146 5.64806,-0.77451 3.34123,-0.46221 8.79068,-0.5049 10.61211,-0.0835 3.59646,0.83298 6.22304,2.83261 7.3971,5.63228 1.44694,3.45121 0.2325,7.04721 -2.90083,8.58974 -1.23625,0.60838 -2.86557,0.75502 -4.30368,0.38703 z m -37.93685,-22.47625 c 0.84506,-0.64133 1.29751,-1.28498 1.32443,-1.88408 0.0306,-0.68124 -0.34944,-0.75966 -1.00515,-0.20836 -0.50722,0.42693 -1.2112,1.50633 -1.41724,2.17412 -0.16242,0.52624 0.34665,0.48819 1.09796,-0.0817 z m -9.24081,14.14731 c -2.53608,-0.71651 -3.66931,-3.53938 -3.23171,-8.0491 0.40698,-4.19278 2.09059,-9.71648 4.30415,-14.11994 0.41858,-0.83298 0.70537,-1.51283 0.63669,-1.51051 -0.2775,0.009 -3.04747,4.02571 -4.73897,6.87179 -3.26558,5.49539 -4.96265,9.33873 -4.96265,11.23998 0,1.20748 -0.62926,1.44647 -2.51659,0.95503 -1.37826,-0.35872 -2.28085,-1.0432 -2.81359,-2.13189 -0.39816,-0.81442 -0.4325,-1.01907 -0.33412,-2.00613 0.33551,-3.37695 3.25908,-10.6186 5.93671,-14.7051 l 0.28957,-0.44179 -1.05852,0.11695 c -0.99912,0.10998 -2.73238,0.44317 -3.56212,0.68448 l -0.37496,0.10906 0.35361,-0.5991 c 0.19491,-0.32948 0.48355,-1.02093 0.64273,-1.53511 l 0.28911,-0.93601 2.67298,-0.12762 2.67298,-0.12761 0.4687,-0.56847 c 1.44972,-1.758788 4.04566,-1.959718 4.04566,-0.31324 0,0.39027 -0.15406,0.68541 -0.58053,1.11188 -0.31974,0.31974 -0.7193,0.62509 -0.88821,0.67846 -0.68032,0.21578 -2.24605,3.30271 -3.29343,6.49311 -0.35872,1.09194 -0.63019,2.05115 -0.60328,2.13189 0.0269,0.0807 0.57869,-0.64783 1.22605,-1.6191 1.69103,-2.53655 3.76723,-5.08284 5.93531,-7.27877 1.50819,-1.52675 2.02933,-1.952758 2.59224,-2.116108 0.8534,-0.24734 1.41723,-0.0854 1.88361,0.541558 0.45246,0.60745 0.41766,1.9045 -0.10627,3.97698 -1.67525,6.63048 -2.34303,12.88693 -1.65947,15.55898 0.45942,1.79545 1.55599,2.85861 2.94863,2.85861 1.12488,0 1.3221,0.50025 0.6933,1.75878 -0.52206,1.04553 -2.04371,2.39547 -3.1788,2.82009 -1.18753,0.4441 -2.69758,0.5578 -3.68881,0.27797 z m 51.51615,-6.81146 c -1.46179,-0.35732 -2.65767,-1.35784 -3.33844,-2.79318 -0.38239,-0.80607 -0.42601,-1.08867 -0.41766,-2.70082 0.008,-1.50262 0.0821,-2.01865 0.44828,-3.11059 0.24131,-0.72068 0.43946,-1.36526 0.44086,-1.43255 9.3e-4,-0.0678 -0.17449,-0.12297 -0.39028,-0.12297 -0.49561,0 -1.23207,0.82138 -1.78199,1.98849 -0.96152,2.0414 -1.7546,5.10651 -1.7546,6.7813 v 0.92487 l -1.20191,-0.0603 c -1.77921,-0.09 -2.63354,-0.74853 -2.88135,-2.22145 -0.0956,-0.56755 -0.14386,-0.61488 -0.58935,-0.57311 -0.297,0.0278 -0.61117,0.21346 -0.81211,0.4803 -0.83623,1.11142 -1.48963,1.7082 -2.30869,2.10868 -0.79679,0.38981 -1.02789,0.4274 -2.24326,0.36383 -1.62421,-0.0854 -2.5695,-0.48727 -3.62245,-1.54068 -0.39585,-0.39538 -0.84645,-1.05109 -1.00144,-1.45715 -0.155,-0.40558 -0.3267,-0.73739 -0.38238,-0.73692 -0.0552,0 -0.30211,0.31973 -0.54899,0.71001 -0.61348,0.97127 -1.87016,2.18061 -2.66741,2.56624 -2.67948,1.29705 -5.71257,0.33088 -6.96832,-2.22052 -1.41816,-2.88042 -0.20093,-6.02349 2.34676,-6.06061 0.8302,-0.0121 0.83066,-0.0121 1.78755,-1.20702 0.58796,-0.73414 0.95689,-1.35134 0.95689,-1.601 0,-1.5249 1.81447,-2.47158 2.45255,-1.27942 0.18284,0.34248 0.18377,0.52207 0.005,1.06363 -0.19815,0.60002 -0.18191,0.72625 0.20558,1.59775 0.52717,1.18521 1.26503,3.44796 1.26827,3.88882 0.001,0.18238 0.0668,0.43343 0.14572,0.5578 0.22878,0.36057 0.65989,-0.44643 0.92487,-1.73094 0.32345,-1.56574 0.67845,-2.44652 1.4112,-3.50179 1.05806,-1.52212 1.8632,-1.9342 3.81875,-1.95369 a 192.44072,192.44072 0 0 0 2.16622,-0.0348 c 0.90863,-0.0214 1.08822,0.0302 1.6372,0.47009 1.32304,1.06131 1.94256,2.96395 1.80705,5.55154 l -0.0817,1.56481 0.46406,-0.44457 c 0.46406,-0.44503 0.75456,-1.20516 1.94023,-5.08284 0.58007,-1.89476 0.63762,-1.93977 2.25301,-1.75136 1.26038,0.14664 2.06877,0.48726 1.94209,0.81721 -0.0534,0.13922 -0.13876,0.44828 -0.18934,0.68773 l -0.0919,0.43483 0.37914,-0.42276 c 1.44044,-1.60565 3.48369,-2.02655 4.51344,-0.92951 0.6882,0.73321 0.78751,1.66133 0.40048,3.73985 -0.47937,2.57228 -0.50397,2.86742 -0.33644,4.0647 0.2608,1.87015 1.02742,2.63354 2.64374,2.63354 2.32215,0 4.09022,-2.29478 4.31668,-5.60399 0.17681,-2.58017 -0.64272,-4.9232 -2.2957,-6.56272 -0.85155,-0.84459 -2.24605,-1.58477 -2.98622,-1.58477 -0.30999,0 -0.92441,-0.31509 -1.0859,-0.55686 -0.21764,-0.32578 -0.12298,-1.31422 0.19212,-2.00799 0.72625,-1.59961 2.53098,-2.673908 4.49302,-2.673908 3.94915,0 7.09686,3.577898 7.4152,8.430098 0.25385,3.87211 -1.51236,7.9382 -4.48467,10.32532 -1.04274,0.83716 -3.13935,1.89058 -4.33431,2.17829 -0.84273,0.2028 -3.20201,0.22136 -3.9793,0.0311 z m -16.07362,-3.96353 c 0.56243,-0.29607 0.59956,-0.48494 0.18191,-0.93508 -0.59864,-0.64597 -1.35506,-2.17365 -1.60101,-3.23681 l -0.22275,-0.9606 -0.26915,0.88913 c -0.34015,1.12395 -0.35222,2.97787 -0.0232,3.61317 0.40559,0.78472 1.1685,1.03346 1.9342,0.63019 z m -10.61768,-1.07894 c 0.51604,-0.55687 0.65061,-1.23625 0.52949,-2.67948 -0.13457,-1.601 -0.27472,-1.77966 -0.81024,-1.02696 -0.38982,0.54759 -0.40838,0.63855 -0.19491,0.94343 0.38888,0.55456 0.30164,0.91977 -0.21811,0.91977 -1.08358,0 -1.58522,1.14251 -0.8483,1.93373 0.45292,0.48587 1.0395,0.45153 1.54207,-0.0905 z m 12.77555,-3.55376 c 0,-1.4358 -0.0469,-1.74579 -0.31138,-2.03769 -0.17171,-0.1898 -0.4455,-0.34479 -0.60792,-0.34479 -0.94111,0 -0.81303,2.53051 0.19954,3.95285 0.54574,0.76616 0.72023,0.38656 0.72023,-1.57037 z m 17.04304,5.10743 c 0.0297,-0.20279 0.21579,-1.3054 0.41394,-2.45023 0.45199,-2.61265 0.33273,-3.35515 -0.78101,-4.85406 -0.41023,-0.55223 -0.81211,-1.00376 -0.89378,-1.00376 -0.0812,0 -0.14757,-0.0835 -0.14757,-0.18562 0,-0.31371 2.27389,-0.0812 3.03819,0.31092 0.8019,0.41069 1.03022,0.98241 1.16758,2.92171 0.17402,2.45487 -0.68774,4.65916 -2.11008,5.39933 -0.61024,0.31742 -0.74899,0.28958 -0.68681,-0.13829 z m 1.78895,-2.80988 c 0.28679,-0.96524 0.31185,-2.61404 0.0557,-3.63033 -0.18748,-0.74621 -0.63576,-1.21305 -1.1634,-1.21305 -0.2608,0 -0.24688,0.0701 0.12344,0.62972 0.66639,1.00701 0.83855,2.34072 0.51372,3.97792 -0.14943,0.75224 -0.26916,1.44137 -0.26591,1.5314 0.0111,0.34804 0.50768,-0.52532 0.73646,-1.29566 z m -76.53914,0.9077 c -1.55043,-0.51371 -2.76951,-1.55924 -3.38485,-2.90315 -0.45803,-1.00005 -0.7657,-2.67159 -0.62741,-3.4048 0.33876,-1.79406 0.84784,-2.98901 1.24786,-2.92868 0.12483,0.0186 0.85294,0.2311 1.61817,0.47194 1.67433,0.52671 4.3422,0.62092 5.51906,0.19491 0.81303,-0.29421 0.93972,-0.23017 0.5926,0.29978 -0.14061,0.21487 -0.29328,0.85666 -0.33876,1.42652 -0.10302,1.28127 0.29235,2.2971 1.16571,2.99365 0.88079,0.70258 0.75688,1.2692 -0.54527,2.492 -1.01304,0.95132 -2.04046,1.36943 -3.5222,1.43487 -0.72394,0.0325 -1.49984,-0.003 -1.72491,-0.077 z m 60.54812,-7.13119 c -1.48313,-1.91518 -1.90635,-2.04836 -5.88149,-1.85206 -2.10265,0.10395 -2.67066,0.35268 -3.94264,1.7263 l -0.89935,0.97174 -1.05156,-1.3597 c -1.19541,-1.54578 -1.86644,-1.94766 -2.99596,-1.79359 l -0.67521,0.0919 -1.20656,-1.56574 c -0.92719,-1.20191 -1.40192,-1.66829 -2.04649,-2.00659 l -0.83995,-0.44086 1.6372,-0.0947 c 3.43682,-0.19862 5.9627,-1.6567 7.85374,-4.533858 0.25152,-0.38285 0.50257,-0.69284 0.55826,-0.6896 0.0557,0.004 0.4325,0.45292 0.83763,0.99866 0.8469,1.13973 1.51329,1.70681 2.78296,2.36717 0.8367,0.435288 1.03392,0.468688 2.78343,0.471938 1.72583,0.003 1.95137,-0.0334 2.70778,-0.432498 0.79587,-0.42044 2.20336,-1.75832 2.20336,-2.09523 0,-0.09 0.30396,-0.3188 0.67567,-0.50861 l 0.67613,-0.34479 0.71651,0.81906 c 1.76806,2.02144 4.53479,2.821018 6.89313,1.99221 1.12767,-0.39631 1.28823,-0.40373 1.4191,-0.0622 0.064,0.16707 -0.0603,0.425078 -0.33412,0.696088 -0.75039,0.74018 -1.40471,2.35232 -1.42931,3.52128 -0.0204,0.93926 0.0329,1.11375 0.60885,1.98061 0.59028,0.88914 0.60606,0.9439 0.24595,0.8418 -1.59219,-0.45152 -2.66231,-0.42136 -3.66607,0.1021 -0.46267,0.24131 -0.56615,0.23667 -1.47385,-0.0701 -1.27709,-0.43157 -3.07903,-0.4738 -3.79322,-0.0882 -0.43993,0.23667 -0.581,0.46963 -0.8664,1.42838 -0.18748,0.62973 -0.39306,1.14019 -0.4571,1.13416 -0.0636,-0.006 -0.53181,-0.54806 -1.04042,-1.20516 z m 2.0233,-2.10219 c 0.78426,-0.39863 2.89851,-0.40744 4.13662,-0.0172 0.80979,0.25523 0.91652,0.25523 1.54532,0.004 0.37125,-0.1485 0.97824,-0.27008 1.34902,-0.27008 h 0.67381 l -0.0998,-0.85944 c -0.11323,-0.9787 0.22879,-2.87716 0.61953,-3.43496 0.13967,-0.19955 0.25383,-0.40141 0.25383,-0.44875 0,-0.0473 -0.71836,-0.0882 -1.59636,-0.09 -2.22099,-0.006 -3.57743,-0.55826 -5.268,-2.146738 -0.39909,-0.37495 -0.80421,-0.64643 -0.90028,-0.60373 -0.0965,0.0427 -0.39862,0.38377 -0.67149,0.75827 -0.63112,0.86686 -2.03583,1.851588 -3.08599,2.162978 -1.04785,0.31092 -2.88366,0.30952 -4.08558,-0.003 -1.21954,-0.31788 -2.60801,-1.190308 -3.59553,-2.259968 l -0.78565,-0.85062 -0.44179,0.5643 c -0.71929,0.91884 -1.99035,2.063668 -2.90826,2.619608 -0.99819,0.60513 -2.9013,1.30958 -3.55005,1.31468 -0.25431,0.002 -0.44642,0.0928 -0.44178,0.2079 0.005,0.11277 0.40002,0.67753 0.87846,1.25528 0.84273,1.01768 0.89471,1.05109 1.70217,1.09193 1.15133,0.0585 1.60101,0.31974 2.55836,1.48638 0.45478,0.55548 0.89331,1.01629 0.97313,1.02325 0.0798,0.007 0.47241,-0.28771 0.87151,-0.65571 1.11605,-1.02836 1.92537,-1.31561 3.86885,-1.37315 0.9142,-0.0269 1.7922,-0.1021 1.95091,-0.16706 0.15871,-0.0654 0.76616,-0.0283 1.35041,0.0817 1.20052,0.22646 2.31937,0.88357 2.98066,1.7509 l 0.43111,0.56475 0.33969,-0.69794 c 0.226,-0.46406 0.54295,-0.80143 0.94761,-1.00701 z m -28.46261,2.38526 c -1.14762,-1.36016 -3.08414,-2.03907 -4.91067,-1.72166 -0.52717,0.0914 -0.9852,0.14108 -1.01769,0.10998 -0.0325,-0.0315 0.0302,-0.43064 0.13969,-0.88774 0.31556,-1.31468 0.26544,-2.59641 -0.13644,-3.50504 -0.19397,-0.439 -0.35315,-0.81814 -0.35315,-0.8418 0,-0.0241 0.5708,0.13921 1.26874,0.36289 2.41636,0.77405 4.89768,0.32994 6.98549,-1.25018 l 1.02371,-0.774968 0.47705,0.391198 c 0.2622,0.21486 0.99262,0.64272 1.62282,0.95086 l 1.14622,0.55965 -0.65525,0.007 c -1.0743,0.0107 -1.8437,0.18794 -2.182,0.50304 -0.32485,0.30256 -0.5592,0.86732 -1.95462,4.70556 l -0.79122,2.17783 z m 1.43719,-3.69391 c 0.84737,-2.42053 0.93926,-2.60105 1.61029,-3.17741 0.36939,-0.31695 0.38377,-0.368 0.13086,-0.46685 -0.18516,-0.0724 -0.45849,0.0357 -0.78379,0.30953 -0.69238,0.5824 -2.39176,1.36898 -3.44704,1.59544 -0.53598,0.11462 -1.446,0.14896 -2.31751,0.0872 l -1.43487,-0.10209 v 1.30818 c 0,0.71929 -0.0186,1.34809 -0.0408,1.39774 -0.0227,0.0497 0.45571,0.11416 1.06316,0.14386 1.29473,0.0622 2.80385,0.58333 3.58254,1.23579 0.67196,0.56291 0.57404,0.70213 1.6372,-2.33189 z m -35.9089,0.45246 c -2.28735,-0.57543 -4.62945,-2.13468 -7.672288,-5.10604 l -1.896146,-1.851598 h -1.167573 c -1.436263,0 -2.915684,-0.49747 -3.175557,-1.0678 -0.373568,-0.81953 0.375888,-1.93884 1.430695,-2.13699 0.319272,-0.0599 1.000511,-0.0603 1.514225,0 1.826073,0.2116 1.665972,0.27008 2.270642,-0.82603 l 0.552694,-1.0033 -0.944825,-0.37867 c -5.037826,-2.02051 -8.603657,-7.3029 -7.901072,-11.70264 0.338764,-2.12308 1.269666,-3.48741 2.907331,-4.26193 0.820457,-0.38841 1.060375,-0.426 2.31844,-0.36474 1.855773,0.0905 3.229852,0.73878 4.519937,2.13189 1.19356,1.28915 1.164788,1.60193 -0.169846,1.84045 -1.552278,0.27705 -2.39965,1.57085 -2.39965,3.66189 0,1.83165 0.457098,2.9607 1.689176,4.17421 0.532276,0.52439 1.05527,0.92395 1.162468,0.88821 0.106733,-0.0357 0.436216,-0.94343 0.732749,-2.01679 1.89615,-6.87643 2.60476,-8.49508 4.56727,-10.43345 1.15922,-1.1453 2.51799,-1.7509 3.93058,-1.75183 3.53149,-0.002 5.31487,2.41312 5.07727,6.8769 -0.0928,1.73651 -0.53134,3.75888 -1.09193,5.0318 -1.5713,3.56768 -5.35246,6.26619 -9.40369,6.71168 l -1.13834,0.1253 -0.58936,1.04413 c -0.324837,0.57358 -0.838086,1.33881 -1.141581,1.70032 -0.639009,0.76105 -0.707226,0.65757 1.171751,1.78198 2.17876,1.30354 4.54453,1.801018 5.70607,1.20053 0.48958,-0.25292 0.76199,-0.85944 0.58889,-1.31005 -0.0998,-0.25987 -0.20233,-0.31045 -0.98148,-0.48215 -0.42601,-0.0937 -0.46035,-0.15175 -0.37079,-0.62741 0.18331,-0.97545 1.77271,-2.07574 3.00293,-2.07898 0.59539,-9.3e-4 1.88408,0.49793 2.58435,1.00097 1.97503,1.41909 2.70407,4.604388 1.56527,6.836988 -0.46267,0.90677 -1.38383,1.79312 -2.28735,2.20103 -0.96803,0.43714 -3.58625,0.53831 -4.96079,0.19258 z m -1.59079,-15.730218 c 1.81261,-0.52902 3.43496,-1.80519 4.56031,-3.58671 0.82277,-1.30261 1.10492,-1.98293 1.4952,-3.60249 0.37774,-1.5662 0.40094,-2.51335 0.0812,-3.27951 -0.1912,-0.45663 -0.32717,-0.56754 -0.69609,-0.56615 -1.17593,0.002 -2.40383,1.48128 -4.11899,4.95894 -0.63019,1.27848 -1.42002,3.13518 -1.75415,4.12548 a 214.39536,214.39536 0 0 1 -0.68356,2.00567 c -0.0984,0.26451 0.0436,0.25801 1.11653,-0.0552 z m 22.18806,10.3114 c -0.0617,-0.16103 0.19862,-0.71001 0.67892,-1.43209 0.42879,-0.64411 0.91883,-1.48406 1.09054,-1.86644 0.17031,-0.38286 0.35454,-0.69377 0.40837,-0.69052 0.0538,0.003 0.51974,0.57357 1.03624,1.26873 l 0.93833,1.26317 -0.70537,0.10535 c -0.81071,0.12065 -1.80658,0.59306 -2.52402,1.1968 -0.57497,0.483548 -0.78333,0.518818 -0.92301,0.15546 z m 2.48782,-2.00613 c 0.17077,-0.10812 0.16521,-0.17402 -0.0292,-0.33551 -0.19723,-0.16382 -0.27519,-0.13829 -0.42276,0.13736 -0.19583,0.36567 0.0316,0.46498 0.45199,0.19815 z m 50.54997,1.34113 c -0.0664,-0.17356 0.0613,-0.4557 0.35129,-0.77683 0.2506,-0.27751 0.47845,-0.54063 0.50722,-0.58472 0.0775,-0.11972 0.6766,0.70166 0.68078,0.93369 0.005,0.21903 -0.81953,0.6998 -1.19821,0.6998 -0.12993,0 -0.28307,-0.12251 -0.34108,-0.27194 z m -44.94367,-0.56893 c -1.31375,-0.21811 -2.42471,-0.7903 -3.54402,-1.827 -2.84236,-2.63122 -3.3041,-6.98781 -0.98937,-9.33966 1.20423,-1.22419 1.84927,-1.49659 3.54448,-1.49659 1.4525,0 2.19221,0.2311 2.9245,0.91327 0.45107,0.41997 0.44039,0.56383 -0.0752,1.00979 -0.98334,0.84923 -1.1091,1.99221 -0.30303,2.74909 0.89471,0.84087 2.43306,0.26915 3.65122,-1.35645 1.10121,-1.46968 1.68824,-2.69155 3.87211,-8.06071 0.51185,-1.25806 1.1091,-2.64096 1.32813,-3.073 0.49237,-0.97174 0.36336,-1.05666 -1.18892,-0.78658 -1.76481,0.30721 -2.84653,1.02557 -3.51339,2.33236 -0.62462,1.22466 -0.23945,3.17974 0.75503,3.83128 0.62741,0.41115 0.53831,1.03114 -0.26266,1.82375 -1.59451,1.57873 -4.38026,1.29379 -6.10238,-0.62416 -0.87986,-0.97916 -1.317,-2.19871 -1.317,-3.67164 0,-2.98529 1.87573,-5.05314 5.44666,-6.00354 1.67479,-0.44549 5.15895,-0.47798 6.78177,-0.0622 l 1.11095,0.284 0.33737,-0.42879 c 0.69052,-0.87801 2.02516,-1.28452 3.00108,-0.91327 0.67195,0.25523 0.6404,0.53505 -0.15314,1.36294 -0.40745,0.42508 -0.7411,0.84459 -0.7411,0.93229 0,0.0872 0.28771,0.34016 0.63947,0.56244 1.46039,0.92162 3.39134,3.27719 4.25635,5.19144 0.9838,2.1769 1.23811,3.43032 1.24089,6.11398 0.002,2.11657 -0.0501,2.62518 -0.37913,3.6837 -0.47799,1.53882 -1.59637,3.36304 -2.63308,4.29487 -3.05722,2.74862 -7.71173,2.9129 -10.2622,0.36289 l -0.68959,-0.68959 -0.79262,0.8121 c -1.68268,1.72166 -3.73707,2.43817 -5.9432,2.07296 z m 11.7175,-5.36499 c 1.46596,-0.68588 2.93053,-2.17319 3.72268,-3.78023 0.82556,-1.67479 1.08357,-2.75698 1.0859,-4.55521 0.003,-2.34303 -0.73322,-4.25542 -2.27018,-5.90097 -0.27612,-0.29561 -0.57497,-0.4919 -0.6636,-0.43714 -0.17264,0.10627 -0.95504,2.44187 -1.81216,5.40907 -1.14344,3.95657 -2.51149,7.68436 -3.30503,9.00414 -0.52763,0.87753 -0.439,0.95828 0.93833,0.85387 0.89285,-0.0673 1.5314,-0.23203 2.30452,-0.59353 z m -32.08367,4.00715 c -3.31059,-1.20841 -3.13518,-8.0505 0.29468,-11.48129 1.46132,-1.46179 2.82056,-1.74579 4.11435,-0.85898 0.28308,0.19398 0.65433,0.56059 0.82464,0.81536 0.17031,0.2543 0.35129,0.46266 0.40233,0.46266 0.0511,4.7e-4 0.21533,-0.25709 0.36568,-0.57218 0.26637,-0.55826 0.29793,-0.57311 1.22837,-0.57311 0.52531,0 1.34484,0.11601 1.8205,0.25709 1.00283,0.29746 0.99448,0.13921 0.13783,2.52587 -1.0627,2.96163 -1.35506,4.66287 -0.83531,4.86241 0.36429,0.13968 0.85248,-0.48772 1.79776,-2.31101 0.73507,-1.41724 0.76338,-1.44879 0.9671,-1.05992 0.34387,0.65712 0.58193,2.29849 0.41626,2.87532 -0.24502,0.85479 -1.46364,3.07578 -2.08641,3.80343 -1.59914,1.8683 -3.94218,1.69938 -4.99281,-0.35965 l -0.34851,-0.68356 -0.26358,0.4028 c -1.1388,1.73837 -2.47112,2.39548 -3.84288,1.89476 z m 3.22939,-4.64291 c 0.52439,-0.83345 1.03671,-2.01448 1.50541,-3.47209 0.48355,-1.5017 0.48587,-1.57595 0.0543,-1.68918 -1.07058,-0.27983 -2.42332,1.31329 -3.0317,3.57186 -0.31417,1.16479 -0.28215,1.82515 0.10674,2.21357 0.41951,0.42043 0.82416,0.23528 1.36526,-0.62416 z m 42.77976,4.13987 c -2.25347,-0.61952 -3.75748,-2.54444 -4.09207,-5.23784 -0.2724,-2.195 0.36661,-4.46889 1.73373,-6.17013 0.73321,-0.9128 1.66272,-1.30586 3.01684,-1.2757 0.61256,0.0139 1.53233,-0.0269 2.04419,-0.0905 0.78286,-0.097 1.05295,-0.0566 1.69288,0.25338 1.54022,0.74527 2.44095,2.8122 2.43446,5.58773 -0.004,1.66319 0.0812,1.79452 0.65293,1.01397 0.20233,-0.27704 0.355,-0.87985 0.44364,-1.75321 0.18284,-1.79823 2.00984,-7.82265 3.20386,-10.56338 l 0.38471,-0.88311 1.14298,0.0961 c 1.46828,0.12298 2.03026,0.38656 2.09894,0.98474 0.0297,0.25523 -0.2506,1.26409 -0.63344,2.28131 -1.26364,3.35747 -1.33742,3.61131 -1.01165,3.47348 1.06269,-0.45106 1.58244,-0.56011 2.21217,-0.46406 0.95781,0.14711 1.46503,0.43483 2.12632,1.20749 0.86129,1.00608 1.18335,2.19361 1.18335,4.36447 0,1.39079 0.0464,1.78895 0.19397,1.66644 0.10674,-0.0882 0.2441,-0.39538 0.30536,-0.68217 0.27797,-1.29936 3.52685,-11.31747 3.71247,-11.44555 0.25941,-0.17913 2.1588,-0.0441 2.85211,0.20279 0.28354,0.10117 0.55316,0.32809 0.59956,0.50397 0.0459,0.17634 -0.12344,0.96385 -0.37589,1.7495 -1.37315,4.26656 -2.45162,8.25794 -2.4558,9.08814 -0.003,0.57775 0.39724,0.74249 0.83717,0.34386 0.47148,-0.42693 1.36154,-1.98756 1.87897,-3.29574 1.1221,-2.83633 3.09713,-4.27724 5.61697,-4.09672 2.33097,0.16707 3.74125,1.8581 3.58579,4.30137 -0.0882,1.38661 -0.78519,2.75558 -1.74672,3.43125 -0.61859,0.43529 -0.84644,0.49747 -1.81122,0.49747 -0.95689,0 -1.18382,-0.0608 -1.70496,-0.45849 -0.67195,-0.51232 -0.75131,-0.38934 -0.44224,0.68867 0.41347,1.4409 1.53603,2.31287 3.00153,2.33004 1.1323,0.0139 1.74393,-0.30767 2.56532,-1.3467 0.85897,-1.08683 1.32721,-2.60662 1.33092,-4.32179 0.002,-0.96431 0.0715,-1.38428 0.26359,-1.59636 0.34108,-0.37682 1.24878,-0.36707 2.1059,0.0223 1.25992,0.57218 1.79498,1.68221 1.66736,3.46188 -0.20418,2.85721 -2.41775,5.30605 -5.54875,6.1395 -1.01954,0.27147 -3.01732,0.30303 -4.05263,0.0645 -1.71749,-0.39585 -3.725,-1.79545 -4.46518,-3.11245 -0.19908,-0.35361 -0.40512,-0.64319 -0.45803,-0.64319 -0.0529,0 -0.24177,0.27612 -0.41997,0.61395 -0.41116,0.77962 -1.65066,2.12725 -2.23398,2.42889 -0.58286,0.30164 -2.15416,0.297 -2.74398,-0.008 -0.67753,-0.35037 -1.3054,-1.17082 -1.52583,-1.99406 -0.14664,-0.54899 -0.25291,-0.69563 -0.44411,-0.61395 -0.13828,0.0585 -0.41997,0.14339 -0.62648,0.18794 -0.20557,0.0446 -0.4789,0.28307 -0.60698,0.53042 -0.33784,0.65432 -1.79963,1.91285 -2.48226,2.13792 -0.91326,0.30164 -3.09899,0.12483 -3.96214,-0.3202 -0.9179,-0.47334 -1.96482,-1.55553 -2.45162,-2.53284 l -0.38285,-0.76895 -0.62184,0.56152 c -0.34247,0.30952 -0.84876,0.61209 -1.12534,0.67288 -0.32391,0.071 -0.62323,0.30396 -0.83809,0.65201 -1.20099,1.94301 -3.35237,2.76022 -5.6244,2.1356 z m 1.99685,-3.5301 0.55316,-0.33691 -0.41069,-0.43992 c -0.69145,-0.74203 -1.30958,-1.85856 -1.69057,-3.05584 l -0.36336,-1.14297 -0.21347,0.73321 c -0.11833,0.40373 -0.21578,1.29472 -0.21718,1.97967 -0.002,1.05992 0.0575,1.33464 0.40234,1.83768 0.57404,0.83855 1.08034,0.94947 1.93977,0.42508 z m 12.01217,-0.21672 c 0.38981,-0.29607 0.37775,-0.33273 -0.36243,-1.09518 -0.68773,-0.70862 -1.63534,-2.42703 -1.65483,-3.0006 -0.0111,-0.33598 -0.0139,-0.33645 -0.15221,-0.0148 -0.19491,0.45338 -0.19723,2.34071 -0.004,3.01499 0.32855,1.14576 1.39728,1.68453 2.17319,1.09518 z m -10.1267,-2.6507 c 0.0548,-0.14247 0.0988,-0.86037 0.0988,-1.59637 -9.3e-4,-1.56573 -0.36382,-2.40104 -1.04413,-2.40104 -0.4738,0 -0.5926,0.26358 -0.5926,1.31561 0,0.84227 0.16149,1.32721 0.77405,2.32679 0.40744,0.66546 0.60884,0.7592 0.76384,0.35501 z m 11.71936,-1.45993 c 0.003,-1.65809 -0.43483,-2.71057 -0.98428,-2.36949 -0.34896,0.21625 -0.29513,2.04 0.0817,2.77879 0.65897,1.29194 0.90028,1.18288 0.9026,-0.4093 z m 15.0202,0.38656 c 0.74528,-0.46081 1.51747,-1.54486 1.51747,-2.13003 0,-1.10632 -1.43069,-0.16892 -2.1458,1.40563 -0.52439,1.15365 -0.36476,1.33789 0.62833,0.72393 z"
       id="path3765"
       style="fill:#ff1493;fill-opacity:1;stroke-width:0.464059" />
  </g>
</svg>
